<svg width="570" height="570" viewBox="0 0 570 570" fill="none" xmlns="http://www.w3.org/2000/svg">
<rect width="570" height="570" fill="#7A7A7A"/>
<rect x="21" y="21" width="528" height="528" rx="29" stroke="#F4ECEC" stroke-width="2"/>
<path d="M232 548L220.28 507.222L210 471" stroke="#F5F5F5" stroke-linecap="round" stroke-linejoin="round" stroke-dasharray="2 2"/>
<path d="M280 549.924L133 21.9237" stroke="#F5F5F5" stroke-dasharray="2 2"/>
<path d="M549.5 306.5L21.0001 470" stroke="white" stroke-dasharray="2 2"/>
<path d="M182.5 375L21 423.5" stroke="white" stroke-dasharray="4 4"/>
<path d="M193.5 548.5C217.621 543.365 221.438 533.917 221.5 512.5L204 450.5M204 450.5C196.724 431.165 186.968 423.733 159 426.5M204 450.5L172.5 336M159 426.5L52.5 461C33.3879 467.836 26.1019 473.83 21 489.5M159 426.5C198.969 404.853 215.182 383.077 217.5 324" stroke="white" stroke-width="2"/>
<path d="M60.5 458L498 323C523.834 320.026 543.79 334.797 548.5 359.5" stroke="white" stroke-width="2"/>
<path d="M250 440C243.096 418.556 256.348 396.685 274 392C223.856 388.772 201.003 374.169 172 335" stroke="white" stroke-width="2"/>
<line x1="260.855" y1="350.521" x2="548.855" y2="263.521" stroke="white" stroke-dasharray="2 2"/>
<path d="M21 385C30.2083 408.268 38.5415 414.004 58.5 412.5L498.5 279C539.26 261.263 544.606 258.898 549 222.5" stroke="white" stroke-width="2"/>
<path d="M149.5 385.5C169.896 373.339 175.547 363.629 173 340L92.5 48C81.5094 27.5789 76.4229 20.843 58 21" stroke="white" stroke-width="2"/>
<path d="M219 328.5C228.176 348.888 237.425 352.931 259 351" stroke="white" stroke-width="2"/>
<path d="M150 385.5C198.979 385.692 223.443 396.856 250 442" stroke="white" stroke-width="2"/>
<path d="M205.5 453C210.563 405.993 222.914 382.227 261 352" stroke="white" stroke-width="2"/>
<line x1="172.481" y1="20.8646" x2="264.481" y2="347.865" stroke="white" stroke-dasharray="2 2"/>
<path d="M172.5 21C149.164 25.8051 141.652 32.5831 143 55.5L268.5 508.5C282.201 539.914 293.992 548.373 321.5 549" stroke="white" stroke-width="2"/>
<line x1="253.853" y1="312.522" x2="548.853" y2="221.522" stroke="white" stroke-dasharray="2 2"/>
<line x1="182" y1="56.5" x2="547" y2="56.5" stroke="white" stroke-dasharray="2 2"/>
<line x1="513.5" y1="20" x2="513.5" y2="233" stroke="white" stroke-dasharray="2 2"/>
<path d="M441 57H202C191.271 61.001 188.354 65.1862 188.5 76L249.5 295C255.145 304.624 259.818 307.492 271.5 307L501.5 236" stroke="white" stroke-width="2"/>
<path d="M439.5 57C451.579 58.6296 459.763 60.9575 469 67L497 94.5C510.032 108.4 513.314 117.841 513.5 137V216.5C511.274 228.381 508.127 232.331 500.5 236.5" stroke="white" stroke-width="2"/>
<line x1="238.852" y1="255.522" x2="510.852" y2="171.522" stroke="white" stroke-dasharray="2 2"/>
<line x1="169.852" y1="146.931" x2="284.509" y2="111.522" stroke="white" stroke-dasharray="2 2"/>
<path d="M340.059 162L366.531 277.478" stroke="white" stroke-dasharray="2 2"/>
<path d="M419.059 137L457.915 290.513" stroke="white" stroke-dasharray="2 2"/>
<line x1="339.852" y1="161.522" x2="507.852" y2="109.522" stroke="white" stroke-dasharray="2 2"/>
<line x1="285.34" y1="110.633" x2="340.34" y2="161.633" stroke="white" stroke-dasharray="2 2"/>
<path d="M284.653 109.64L302 57" stroke="white" stroke-dasharray="2 2"/>
<path d="M205.5 136L205.205 135.044L205.198 135.047L205.5 136ZM330 152.5L329.314 153.228L329.339 153.251L329.366 153.273L330 152.5ZM406.5 140.5L406.494 139.5L406.465 139.5L406.437 139.502L406.5 140.5ZM342 171L341.001 171.041L341.005 171.135L341.026 171.226L342 171ZM386.522 272.5C387.074 272.488 387.512 272.031 387.5 271.478C387.488 270.926 387.031 270.488 386.478 270.5L386.522 272.5ZM448.5 252.5L449.472 252.264L449.47 252.255L449.467 252.246L448.5 252.5ZM205.795 136.955L273.795 115.955L273.205 114.045L205.205 135.045L205.795 136.955ZM274.02 115.854C279.544 112.494 285.065 108.61 287.92 101.891L286.08 101.109C283.491 107.201 278.47 110.806 272.98 114.146L274.02 115.854ZM287.949 101.816L296.449 76.3162L294.551 75.6838L286.051 101.184L287.949 101.816ZM296.499 75.9633C296.326 71.2456 295.398 67.0287 292.395 63.5855C289.406 60.1577 284.495 57.6509 276.705 56.0212L276.295 57.9788C283.889 59.5675 288.308 61.9418 290.888 64.9C293.454 67.8428 294.335 71.5167 294.501 76.0367L296.499 75.9633ZM205.198 135.047L184.698 141.547L185.302 143.453L205.802 136.953L205.198 135.047ZM184.933 141.502C179.635 141.856 176.262 141.918 173.565 141.119C170.948 140.343 168.867 138.721 166.291 135.388L164.709 136.612C167.418 140.115 169.819 142.095 172.997 143.036C176.094 143.954 179.829 143.848 185.067 143.498L184.933 141.502ZM184.543 141.611C180.517 143.68 177.571 145.661 175.412 148.461C173.251 151.265 171.952 154.793 171.017 159.817L172.983 160.183C173.891 155.305 175.109 152.13 176.996 149.683C178.885 147.232 181.518 145.415 185.457 143.389L184.543 141.611ZM296.342 76.5402C299.851 71.0727 302.864 67.3515 306.457 64.5395C310.044 61.7316 314.273 59.7806 320.29 57.957L319.71 56.043C313.564 57.9055 309.079 59.9474 305.224 62.9645C301.375 65.9775 298.219 69.9133 294.658 75.4598L296.342 76.5402ZM286 101.511C286.046 105.673 286.667 108.838 288.101 111.808C289.523 114.755 291.714 117.441 294.772 120.686L296.228 119.314C293.2 116.101 291.186 113.597 289.902 110.939C288.63 108.303 288.044 105.447 288 101.489L286 101.511ZM294.814 120.728L329.314 153.228L330.686 151.772L296.186 119.272L294.814 120.728ZM373.578 151.816C378.341 148.442 381.606 145.479 383.913 141.975C386.223 138.465 387.521 134.489 388.484 129.178L386.516 128.822C385.578 133.998 384.346 137.68 382.242 140.876C380.134 144.078 377.1 146.871 372.422 150.184L373.578 151.816ZM388.5 129V41H386.5V129H388.5ZM388.486 40.8307C387.235 33.5494 384.946 28.7004 380.734 25.4931C376.575 22.3255 370.697 20.8885 362.608 20.0059L362.392 21.9941C370.439 22.8722 375.831 24.2732 379.523 27.0843C383.162 29.8558 385.305 34.1264 386.514 41.1693L388.486 40.8307ZM386.567 129.359C388.278 133.814 390.055 137.147 393.124 139.197C396.196 141.248 400.371 141.891 406.563 141.498L406.437 139.502C400.37 139.887 396.748 139.211 394.235 137.533C391.721 135.854 390.127 133.049 388.433 128.641L386.567 129.359ZM406.506 141.5C410.682 141.474 413.446 141.86 415.523 143.041C417.563 144.201 419.099 146.223 420.573 149.874L422.427 149.126C420.878 145.288 419.116 142.783 416.512 141.303C413.945 139.843 410.72 139.474 406.494 139.5L406.506 141.5ZM422.49 149.64C423.049 145.67 423.834 142.894 425.248 140.54C426.66 138.188 428.752 136.171 432.078 133.816L430.922 132.184C427.488 134.615 425.147 136.822 423.533 139.51C421.92 142.197 421.085 145.278 420.51 149.36L422.49 149.64ZM373.296 151.955L492.796 114.955L492.204 113.045L372.704 150.045L373.296 151.955ZM492.348 114.988C499.047 116.019 503.468 118.403 506.513 121.848C509.579 125.316 511.345 129.964 512.52 135.701L514.48 135.299C513.274 129.417 511.414 124.372 508.012 120.523C504.589 116.651 499.7 114.096 492.652 113.012L492.348 114.988ZM493.288 114.615C496.473 110.534 498.115 106.902 498.085 102.878C498.056 98.8976 496.388 94.7037 493.365 89.4978L491.635 90.5022C494.615 95.6328 496.06 99.4511 496.085 102.893C496.111 106.291 494.751 109.49 491.712 113.385L493.288 114.615ZM273.636 115.991C278.006 115.391 281.295 115.389 284.486 116.122C287.686 116.858 290.861 118.351 294.981 120.855L296.019 119.145C291.824 116.595 288.437 114.979 284.934 114.173C281.422 113.366 277.869 113.391 273.364 114.009L273.636 115.991ZM329.57 153.403C336.579 156.737 346.487 158.189 355.022 158L354.978 156C346.631 156.185 337.062 154.752 330.43 151.597L329.57 153.403ZM355.316 157.949L373.316 151.949L372.684 150.051L354.684 156.051L355.316 157.949ZM329.366 153.273C331.639 155.138 334.548 159.283 336.939 163.249C338.122 165.209 339.153 167.085 339.89 168.547C340.258 169.279 340.548 169.898 340.745 170.366C340.844 170.601 340.914 170.787 340.959 170.924C341.012 171.087 341.003 171.105 341.001 171.041L342.999 170.959C342.99 170.726 342.919 170.482 342.86 170.302C342.792 170.095 342.699 169.854 342.589 169.592C342.368 169.066 342.056 168.402 341.676 167.647C340.914 166.135 339.857 164.215 338.652 162.216C336.269 158.265 333.206 153.837 330.634 151.727L329.366 153.273ZM341.026 171.226L361.526 259.726L363.474 259.274L342.974 170.774L341.026 171.226ZM361.501 259.539C361.726 265.384 361.018 269.39 358.946 272.72C356.859 276.073 353.304 278.879 347.511 282.128L348.489 283.872C354.358 280.581 358.282 277.572 360.644 273.777C363.021 269.958 363.732 265.484 363.499 259.461L361.501 259.539ZM342.964 171.266C344.044 167.357 345.251 164.783 347.074 162.821C348.901 160.856 351.433 159.411 355.352 157.936L354.648 156.064C350.616 157.581 347.746 159.161 345.609 161.46C343.47 163.762 342.153 166.692 341.036 170.734L342.964 171.266ZM361.586 259.906C363.767 264.818 365.969 268.165 369.781 270.154C373.531 272.112 378.683 272.669 386.522 272.5L386.478 270.5C378.656 270.67 373.964 270.082 370.706 268.381C367.511 266.714 365.544 263.891 363.414 259.094L361.586 259.906ZM420.533 149.754L447.533 252.754L449.467 252.246L422.467 149.246L420.533 149.754ZM447.528 252.736L451.528 269.236L453.472 268.764L449.472 252.264L447.528 252.736ZM451.509 269.132C452.344 275.386 451.99 279.895 449.87 283.985C447.732 288.11 443.726 291.947 436.929 296.679L438.071 298.321C444.934 293.543 449.276 289.478 451.646 284.905C454.035 280.297 454.352 275.312 453.491 268.868L451.509 269.132ZM451.584 269.402C454.42 275.862 457.633 280.084 462.672 282.372C467.646 284.631 474.232 284.921 483.598 283.995L483.402 282.005C474.081 282.926 467.957 282.575 463.499 280.551C459.105 278.556 456.161 274.854 453.416 268.598L451.584 269.402ZM388.486 41.1665C389.676 34.1166 391.803 29.8172 395.729 27.0265C399.725 24.1854 405.75 22.7803 415.084 21.9965L414.916 20.0035C405.56 20.7892 399.045 22.2146 394.57 25.3964C390.023 28.6286 387.745 33.5444 386.514 40.8335L388.486 41.1665Z" fill="white"/>
<line x1="387.5" y1="22" x2="387.5" y2="146" stroke="white" stroke-dasharray="2 2"/>
<path d="M243.5 273.5C243.789 261.796 246.897 256.467 258.5 249.5M258.5 249.5L494.5 176.5M258.5 249.5C244.948 250.566 239.45 248.965 235 240.5M494.5 176.5C505.411 175.653 510.153 182.05 513.5 191.5M494.5 176.5C505.501 171.824 509.902 163.927 513.5 156" stroke="white" stroke-width="2"/>
<g filter="url(#filter0_d_73_180)">
<path d="M48.5909 478.727V502H45.7727V481.682H45.6364L39.9545 485.455V482.591L45.7727 478.727H48.5909Z" fill="black"/>
<path d="M48.5909 478.727H49.5909V477.727H48.5909V478.727ZM48.5909 502V503H49.5909V502H48.5909ZM45.7727 502H44.7727V503H45.7727V502ZM45.7727 481.682H46.7727V480.682H45.7727V481.682ZM45.6364 481.682V480.682H45.3346L45.0832 480.849L45.6364 481.682ZM39.9545 485.455H38.9545V487.319L40.5077 486.288L39.9545 485.455ZM39.9545 482.591L39.4013 481.758L38.9545 482.055V482.591H39.9545ZM45.7727 478.727V477.727H45.4709L45.2195 477.894L45.7727 478.727ZM47.5909 478.727V502H49.5909V478.727H47.5909ZM48.5909 501H45.7727V503H48.5909V501ZM46.7727 502V481.682H44.7727V502H46.7727ZM45.7727 480.682H45.6364V482.682H45.7727V480.682ZM45.0832 480.849L39.4014 484.621L40.5077 486.288L46.1895 482.515L45.0832 480.849ZM40.9545 485.455V482.591H38.9545V485.455H40.9545ZM40.5077 483.424L46.3259 479.56L45.2195 477.894L39.4013 481.758L40.5077 483.424ZM45.7727 479.727H48.5909V477.727H45.7727V479.727Z" fill="black"/>
</g>
<g filter="url(#filter1_d_73_180)">
<path d="M330.591 518.727V542H327.773V521.682H327.636L321.955 525.455V522.591L327.773 518.727H330.591ZM345.466 518.727V542H342.648V521.682H342.511L336.83 525.455V522.591L342.648 518.727H345.466Z" fill="black"/>
<path d="M330.591 518.727H331.591V517.727H330.591V518.727ZM330.591 542V543H331.591V542H330.591ZM327.773 542H326.773V543H327.773V542ZM327.773 521.682H328.773V520.682H327.773V521.682ZM327.636 521.682V520.682H327.335L327.083 520.849L327.636 521.682ZM321.955 525.455H320.955V527.319L322.508 526.288L321.955 525.455ZM321.955 522.591L321.401 521.758L320.955 522.055V522.591H321.955ZM327.773 518.727V517.727H327.471L327.22 517.894L327.773 518.727ZM329.591 518.727V542H331.591V518.727H329.591ZM330.591 541H327.773V543H330.591V541ZM328.773 542V521.682H326.773V542H328.773ZM327.773 520.682H327.636V522.682H327.773V520.682ZM327.083 520.849L321.401 524.621L322.508 526.288L328.19 522.515L327.083 520.849ZM322.955 525.455V522.591H320.955V525.455H322.955ZM322.508 523.424L328.326 519.56L327.22 517.894L321.401 521.758L322.508 523.424ZM327.773 519.727H330.591V517.727H327.773V519.727ZM345.466 518.727H346.466V517.727H345.466V518.727ZM345.466 542V543H346.466V542H345.466ZM342.648 542H341.648V543H342.648V542ZM342.648 521.682H343.648V520.682H342.648V521.682ZM342.511 521.682V520.682H342.21L341.958 520.849L342.511 521.682ZM336.83 525.455H335.83V527.319L337.383 526.288L336.83 525.455ZM336.83 522.591L336.276 521.758L335.83 522.055V522.591H336.83ZM342.648 518.727V517.727H342.346L342.095 517.894L342.648 518.727ZM344.466 518.727V542H346.466V518.727H344.466ZM345.466 541H342.648V543H345.466V541ZM343.648 542V521.682H341.648V542H343.648ZM342.648 520.682H342.511V522.682H342.648V520.682ZM341.958 520.849L336.276 524.621L337.383 526.288L343.065 522.515L341.958 520.849ZM337.83 525.455V522.591H335.83V525.455H337.83ZM337.383 523.424L343.201 519.56L342.095 517.894L336.276 521.758L337.383 523.424ZM342.648 519.727H345.466V517.727H342.648V519.727Z" fill="black"/>
</g>
<g filter="url(#filter2_d_73_180)">
<path d="M68.1364 63.3182C67.1818 63.303 66.2273 63.1212 65.2727 62.7727C64.3182 62.4242 63.447 61.8371 62.6591 61.0114C61.8712 60.178 61.2386 59.053 60.7614 57.6364C60.2841 56.2121 60.0455 54.4242 60.0455 52.2727C60.0455 50.2121 60.2386 48.3864 60.625 46.7955C61.0114 45.197 61.572 43.8523 62.3068 42.7614C63.0417 41.6629 63.928 40.8295 64.9659 40.2614C66.0114 39.6932 67.1894 39.4091 68.5 39.4091C69.803 39.4091 70.9621 39.6705 71.9773 40.1932C73 40.7083 73.8333 41.428 74.4773 42.3523C75.1212 43.2765 75.5379 44.3409 75.7273 45.5455H72.9545C72.697 44.5 72.197 43.6326 71.4545 42.9432C70.7121 42.2538 69.7273 41.9091 68.5 41.9091C66.697 41.9091 65.2765 42.6932 64.2386 44.2614C63.2083 45.8295 62.6894 48.0303 62.6818 50.8636H62.8636C63.2879 50.2197 63.7917 49.6705 64.375 49.2159C64.9659 48.7538 65.6174 48.3977 66.3295 48.1477C67.0417 47.8977 67.7955 47.7727 68.5909 47.7727C69.9242 47.7727 71.1439 48.1061 72.25 48.7727C73.3561 49.4318 74.2424 50.3447 74.9091 51.5114C75.5758 52.6705 75.9091 54 75.9091 55.5C75.9091 56.9394 75.5871 58.2576 74.9432 59.4545C74.2992 60.6439 73.3939 61.5909 72.2273 62.2955C71.0682 62.9924 69.7045 63.3333 68.1364 63.3182ZM68.1364 60.8182C69.0909 60.8182 69.947 60.5795 70.7045 60.1023C71.4697 59.625 72.072 58.9848 72.5114 58.1818C72.9583 57.3788 73.1818 56.4848 73.1818 55.5C73.1818 54.5379 72.9659 53.6629 72.5341 52.875C72.1098 52.0795 71.5227 51.447 70.7727 50.9773C70.0303 50.5076 69.1818 50.2727 68.2273 50.2727C67.5076 50.2727 66.8371 50.4167 66.2159 50.7045C65.5947 50.9848 65.0492 51.3712 64.5795 51.8636C64.1174 52.3561 63.7538 52.9205 63.4886 53.5568C63.2235 54.1856 63.0909 54.8485 63.0909 55.5455C63.0909 56.4697 63.3068 57.3333 63.7386 58.1364C64.178 58.9394 64.7765 59.5871 65.5341 60.0795C66.2992 60.572 67.1667 60.8182 68.1364 60.8182Z" fill="black"/>
<path d="M68.1364 63.3182L68.1205 64.3181L68.1267 64.3181L68.1364 63.3182ZM65.2727 62.7727L64.9298 63.7121L64.9298 63.7121L65.2727 62.7727ZM62.6591 61.0114L61.9324 61.6984L61.9356 61.7017L62.6591 61.0114ZM60.7614 57.6364L59.8132 57.9541L59.8137 57.9556L60.7614 57.6364ZM60.625 46.7955L61.5968 47.0315L61.597 47.0304L60.625 46.7955ZM62.3068 42.7614L63.1362 43.32L63.138 43.3174L62.3068 42.7614ZM64.9659 40.2614L64.4884 39.3827L64.4857 39.3842L64.9659 40.2614ZM71.9773 40.1932L71.5195 41.0823L71.5274 41.0863L71.9773 40.1932ZM74.4773 42.3523L75.2978 41.7806L75.2978 41.7806L74.4773 42.3523ZM75.7273 45.5455V46.5455H76.8968L76.7151 45.3901L75.7273 45.5455ZM72.9545 45.5455L71.9836 45.7847L72.171 46.5455H72.9545V45.5455ZM71.4545 42.9432L70.7741 43.676L70.7741 43.676L71.4545 42.9432ZM64.2386 44.2614L63.4047 43.7095L63.4029 43.7123L64.2386 44.2614ZM62.6818 50.8636L61.6818 50.861L61.6791 51.8636H62.6818V50.8636ZM62.8636 50.8636V51.8636H63.4023L63.6987 51.4138L62.8636 50.8636ZM64.375 49.2159L64.9897 50.0047L64.991 50.0036L64.375 49.2159ZM66.3295 48.1477L65.9983 47.2042L66.3295 48.1477ZM72.25 48.7727L71.7338 49.6292L71.7381 49.6318L72.25 48.7727ZM74.9091 51.5114L74.0408 52.0075L74.0422 52.0099L74.9091 51.5114ZM74.9432 59.4545L75.8226 59.9306L75.8238 59.9283L74.9432 59.4545ZM72.2273 62.2955L72.7426 63.1525L72.7442 63.1515L72.2273 62.2955ZM70.7045 60.1023L70.1753 59.2538L70.1715 59.2562L70.7045 60.1023ZM72.5114 58.1818L71.6376 57.6955L71.6341 57.7018L72.5114 58.1818ZM72.5341 52.875L71.6517 53.3456L71.6572 53.3556L72.5341 52.875ZM70.7727 50.9773L70.2381 51.8224L70.242 51.8248L70.7727 50.9773ZM66.2159 50.7045L66.6272 51.6161L66.6364 51.6119L66.2159 50.7045ZM64.5795 51.8636L63.8559 51.1734L63.8504 51.1793L64.5795 51.8636ZM63.4886 53.5568L64.4101 53.9454L64.4117 53.9414L63.4886 53.5568ZM63.7386 58.1364L62.8579 58.61L62.8614 58.6164L63.7386 58.1364ZM65.5341 60.0795L64.9891 60.918L64.9929 60.9205L65.5341 60.0795ZM68.1522 62.3183C67.3163 62.305 66.4721 62.146 65.6157 61.8334L64.9298 63.7121C65.9824 64.0964 67.0473 64.301 68.1205 64.3181L68.1522 62.3183ZM65.6157 61.8334C64.8223 61.5437 64.0776 61.0495 63.3826 60.321L61.9356 61.7017C62.8163 62.6248 63.814 63.3047 64.9298 63.7121L65.6157 61.8334ZM63.3857 60.3244C62.7226 59.623 62.1535 58.6365 61.709 57.3171L59.8137 57.9556C60.3237 59.4695 61.0198 60.7331 61.9324 61.6984L63.3857 60.3244ZM61.7095 57.3186C61.2779 56.0306 61.0455 54.3589 61.0455 52.2727H59.0455C59.0455 54.4896 59.2903 56.3936 59.8132 57.9541L61.7095 57.3186ZM61.0455 52.2727C61.0455 50.2722 61.2332 48.5282 61.5968 47.0315L59.6532 46.5595C59.244 48.2445 59.0455 50.1521 59.0455 52.2727H61.0455ZM61.597 47.0304C61.9622 45.5197 62.482 44.2912 63.1362 43.32L61.4774 42.2027C60.6619 43.4134 60.0606 44.8743 59.653 46.5605L61.597 47.0304ZM63.138 43.3174C63.794 42.3368 64.5652 41.6208 65.4461 41.1385L64.4857 39.3842C63.2909 40.0383 62.2893 40.989 61.4757 42.2053L63.138 43.3174ZM65.4434 41.14C66.3278 40.6593 67.3389 40.4091 68.5 40.4091V38.4091C67.0399 38.4091 65.6949 38.727 64.4884 39.3827L65.4434 41.14ZM68.5 40.4091C69.6664 40.4091 70.6648 40.6421 71.5195 41.0822L72.4351 39.3041C71.2595 38.6988 69.9396 38.4091 68.5 38.4091V40.4091ZM71.5274 41.0863C72.4044 41.528 73.1094 42.1383 73.6568 42.9239L75.2978 41.7806C74.5573 40.7178 73.5956 39.8886 72.4271 39.3001L71.5274 41.0863ZM73.6568 42.9239C74.2071 43.7138 74.5716 44.6333 74.7394 45.7008L76.7151 45.3901C76.5042 44.0485 76.0353 42.8392 75.2978 41.7806L73.6568 42.9239ZM75.7273 44.5455H72.9545V46.5455H75.7273V44.5455ZM73.9255 45.3062C73.6244 44.0839 73.0294 43.0409 72.135 42.2104L70.7741 43.676C71.3645 44.2242 71.7696 44.9161 71.9836 45.7847L73.9255 45.3062ZM72.135 42.2104C71.1701 41.3144 69.9234 40.9091 68.5 40.9091V42.9091C69.5312 42.9091 70.2541 43.1931 70.7741 43.676L72.135 42.2104ZM68.5 40.9091C66.3445 40.9091 64.6183 41.8759 63.4047 43.7095L65.0725 44.8133C65.9348 43.5105 67.0494 42.9091 68.5 42.9091V40.9091ZM63.4029 43.7123C62.2245 45.5058 61.6897 47.9259 61.6818 50.861L63.6818 50.8663C63.6891 48.1347 64.1922 46.1532 65.0744 44.8105L63.4029 43.7123ZM62.6818 51.8636H62.8636V49.8636H62.6818V51.8636ZM63.6987 51.4138C64.0656 50.857 64.4959 50.3894 64.9896 50.0047L63.7604 48.4271C63.0874 48.9515 62.5102 49.5824 62.0286 50.3135L63.6987 51.4138ZM64.991 50.0036C65.4956 49.609 66.0508 49.3054 66.6608 49.0913L65.9983 47.2042C65.184 47.49 64.4362 47.8985 63.759 48.4282L64.991 50.0036ZM66.6608 49.0913C67.2608 48.8806 67.9021 48.7727 68.5909 48.7727V46.7727C67.6888 46.7727 66.8225 46.9148 65.9983 47.2042L66.6608 49.0913ZM68.5909 48.7727C69.7485 48.7727 70.7888 49.0596 71.7338 49.6292L72.7662 47.9163C71.4991 47.1525 70.1 46.7727 68.5909 46.7727V48.7727ZM71.7381 49.6318C72.6895 50.1987 73.4558 50.9837 74.0408 52.0075L75.7773 51.0152C75.029 49.7057 74.0226 48.6649 72.7619 47.9137L71.7381 49.6318ZM74.0422 52.0099C74.6114 52.9995 74.9091 54.1532 74.9091 55.5H76.9091C76.9091 53.8468 76.5401 52.3414 75.7759 51.0128L74.0422 52.0099ZM74.9091 55.5C74.9091 56.7841 74.6235 57.938 74.0625 58.9808L75.8238 59.9283C76.5508 58.5771 76.9091 57.0947 76.9091 55.5H74.9091ZM74.0638 58.9784C73.5054 60.0099 72.7257 60.8262 71.7103 61.4394L72.7442 63.1515C74.0622 62.3556 75.0931 61.278 75.8226 59.9306L74.0638 58.9784ZM71.712 61.4385C70.7352 62.0258 69.5594 62.3319 68.146 62.3182L68.1267 64.3181C69.8497 64.3348 71.4012 63.959 72.7426 63.1525L71.712 61.4385ZM68.1364 61.8182C69.2665 61.8182 70.3097 61.5329 71.2376 60.9484L70.1715 59.2562C69.5842 59.6262 68.9153 59.8182 68.1364 59.8182V61.8182ZM71.2338 60.9507C72.1469 60.3812 72.8681 59.6132 73.3886 58.6618L71.6341 57.7018C71.2758 58.3565 70.7925 58.8688 70.1753 59.2538L71.2338 60.9507ZM73.3851 58.6682C73.9208 57.7058 74.1818 56.6425 74.1818 55.5H72.1818C72.1818 56.3272 71.9959 57.0518 71.6376 57.6955L73.3851 58.6682ZM74.1818 55.5C74.1818 54.3821 73.9293 53.34 73.411 52.3944L71.6572 53.3556C72.0025 53.9858 72.1818 54.6936 72.1818 55.5H74.1818ZM73.4164 52.4044C72.9116 51.4578 72.2045 50.694 71.3035 50.1298L70.242 51.8248C70.841 52.1999 71.3081 52.7013 71.6517 53.3456L73.4164 52.4044ZM71.3074 50.1322C70.3912 49.5526 69.3541 49.2727 68.2273 49.2727V51.2727C69.0096 51.2727 69.6694 51.4626 70.2381 51.8224L71.3074 50.1322ZM68.2273 49.2727C67.37 49.2727 66.5551 49.4452 65.7954 49.7972L66.6364 51.6119C67.1191 51.3882 67.6452 51.2727 68.2273 51.2727V49.2727ZM65.8046 49.793C65.0662 50.1262 64.4147 50.5877 63.8559 51.1734L65.3032 52.5538C65.6838 52.1548 66.1232 51.8435 66.6272 51.616L65.8046 49.793ZM63.8504 51.1793C63.3044 51.761 62.8759 52.4275 62.5656 53.1722L64.4117 53.9414C64.6317 53.4134 64.9304 52.9511 65.3087 52.548L63.8504 51.1793ZM62.5672 53.1683C62.2491 53.9227 62.0909 54.7179 62.0909 55.5455H64.0909C64.0909 54.979 64.1979 54.4485 64.4101 53.9454L62.5672 53.1683ZM62.0909 55.5455C62.0909 56.6326 62.3467 57.6593 62.8579 58.61L64.6194 57.6628C64.267 57.0074 64.0909 56.3068 64.0909 55.5455H62.0909ZM62.8614 58.6164C63.3791 59.5625 64.0909 60.3342 64.9891 60.918L66.0791 59.2411C65.4621 58.8401 64.977 58.3162 64.6159 57.6564L62.8614 58.6164ZM64.9929 60.9205C65.9302 61.5237 66.9879 61.8182 68.1364 61.8182V59.8182C67.3454 59.8182 66.6683 59.6203 66.0753 59.2386L64.9929 60.9205Z" fill="black"/>
</g>
<g filter="url(#filter3_d_73_180)">
<path d="M503.591 515.727V539H500.773V518.682H500.636L494.955 522.455V519.591L500.773 515.727H503.591ZM510.284 539V536.955L517.966 528.545C518.867 527.561 519.61 526.705 520.193 525.977C520.777 525.242 521.208 524.553 521.489 523.909C521.777 523.258 521.92 522.576 521.92 521.864C521.92 521.045 521.723 520.337 521.33 519.739C520.943 519.14 520.413 518.678 519.739 518.352C519.064 518.027 518.307 517.864 517.466 517.864C516.572 517.864 515.792 518.049 515.125 518.42C514.466 518.784 513.955 519.295 513.591 519.955C513.235 520.614 513.057 521.386 513.057 522.273H510.375C510.375 520.909 510.689 519.712 511.318 518.682C511.947 517.652 512.803 516.848 513.886 516.273C514.977 515.697 516.201 515.409 517.557 515.409C518.92 515.409 520.129 515.697 521.182 516.273C522.235 516.848 523.061 517.625 523.659 518.602C524.258 519.58 524.557 520.667 524.557 521.864C524.557 522.72 524.402 523.557 524.091 524.375C523.788 525.186 523.258 526.091 522.5 527.091C521.75 528.083 520.708 529.295 519.375 530.727L514.148 536.318V536.5H524.966V539H510.284Z" fill="black"/>
<path d="M503.591 515.727H504.591V514.727H503.591V515.727ZM503.591 539V540H504.591V539H503.591ZM500.773 539H499.773V540H500.773V539ZM500.773 518.682H501.773V517.682H500.773V518.682ZM500.636 518.682V517.682H500.335L500.083 517.849L500.636 518.682ZM494.955 522.455H493.955V524.319L495.508 523.288L494.955 522.455ZM494.955 519.591L494.401 518.758L493.955 519.055V519.591H494.955ZM500.773 515.727V514.727H500.471L500.22 514.894L500.773 515.727ZM502.591 515.727V539H504.591V515.727H502.591ZM503.591 538H500.773V540H503.591V538ZM501.773 539V518.682H499.773V539H501.773ZM500.773 517.682H500.636V519.682H500.773V517.682ZM500.083 517.849L494.401 521.621L495.508 523.288L501.19 519.515L500.083 517.849ZM495.955 522.455V519.591H493.955V522.455H495.955ZM495.508 520.424L501.326 516.56L500.22 514.894L494.401 518.758L495.508 520.424ZM500.773 516.727H503.591V514.727H500.773V516.727ZM510.284 539H509.284V540H510.284V539ZM510.284 536.955L509.546 536.28L509.284 536.567V536.955H510.284ZM517.966 528.545L517.228 527.87L517.228 527.871L517.966 528.545ZM520.193 525.977L520.973 526.603L520.976 526.599L520.193 525.977ZM521.489 523.909L520.574 523.505L520.572 523.51L521.489 523.909ZM521.33 519.739L520.489 520.281L520.494 520.288L521.33 519.739ZM519.739 518.352L520.174 517.452L520.174 517.452L519.739 518.352ZM515.125 518.42L515.608 519.296L515.611 519.294L515.125 518.42ZM513.591 519.955L512.715 519.471L512.711 519.479L513.591 519.955ZM513.057 522.273V523.273H514.057V522.273H513.057ZM510.375 522.273H509.375V523.273H510.375V522.273ZM511.318 518.682L512.172 519.203L512.172 519.203L511.318 518.682ZM513.886 516.273L513.42 515.388L513.417 515.39L513.886 516.273ZM521.182 516.273L521.662 515.395L521.662 515.395L521.182 516.273ZM523.659 518.602L522.806 519.125L523.659 518.602ZM524.091 524.375L523.156 524.02L523.154 524.025L524.091 524.375ZM522.5 527.091L521.703 526.487L521.702 526.488L522.5 527.091ZM519.375 530.727L520.105 531.41L520.107 531.409L519.375 530.727ZM514.148 536.318L513.417 535.635L513.148 535.924V536.318H514.148ZM514.148 536.5H513.148V537.5H514.148V536.5ZM524.966 536.5H525.966V535.5H524.966V536.5ZM524.966 539V540H525.966V539H524.966ZM511.284 539V536.955H509.284V539H511.284ZM511.022 537.629L518.704 529.22L517.228 527.871L509.546 536.28L511.022 537.629ZM518.704 529.221C519.614 528.226 520.372 527.353 520.973 526.603L519.413 525.352C518.848 526.056 518.121 526.895 517.228 527.87L518.704 529.221ZM520.976 526.599C521.597 525.817 522.081 525.053 522.406 524.308L520.572 523.51C520.336 524.053 519.956 524.668 519.41 525.356L520.976 526.599ZM522.403 524.313C522.747 523.534 522.92 522.715 522.92 521.864H520.92C520.92 522.437 520.806 522.981 520.574 523.505L522.403 524.313ZM522.92 521.864C522.92 520.879 522.681 519.973 522.165 519.189L520.494 520.288C520.766 520.701 520.92 521.212 520.92 521.864H522.92ZM522.17 519.196C521.679 518.435 521.004 517.853 520.174 517.452L519.304 519.253C519.821 519.503 520.208 519.845 520.489 520.281L522.17 519.196ZM520.174 517.452C519.348 517.053 518.439 516.864 517.466 516.864V518.864C518.175 518.864 518.781 519 519.304 519.253L520.174 517.452ZM517.466 516.864C516.431 516.864 515.478 517.08 514.639 517.547L515.611 519.294C516.106 519.019 516.713 518.864 517.466 518.864V516.864ZM514.642 517.545C513.818 518 513.17 518.647 512.715 519.471L514.466 520.438C514.739 519.944 515.114 519.568 515.608 519.296L514.642 517.545ZM512.711 519.479C512.263 520.309 512.057 521.251 512.057 522.273H514.057C514.057 521.522 514.207 520.918 514.471 520.43L512.711 519.479ZM513.057 521.273H510.375V523.273H513.057V521.273ZM511.375 522.273C511.375 521.068 511.651 520.057 512.172 519.203L510.465 518.161C509.728 519.368 509.375 520.75 509.375 522.273H511.375ZM512.172 519.203C512.706 518.328 513.428 517.649 514.356 517.156L513.417 515.39C512.178 516.048 511.188 516.975 510.465 518.161L512.172 519.203ZM514.353 517.157C515.286 516.665 516.347 516.409 517.557 516.409V514.409C516.055 514.409 514.668 514.729 513.42 515.388L514.353 517.157ZM517.557 516.409C518.776 516.409 519.815 516.665 520.702 517.15L521.662 515.395C520.442 514.729 519.065 514.409 517.557 514.409V516.409ZM520.702 517.15C521.609 517.646 522.303 518.303 522.806 519.125L524.512 518.08C523.818 516.947 522.86 516.051 521.662 515.395L520.702 517.15ZM522.806 519.125C523.304 519.937 523.557 520.842 523.557 521.864H525.557C525.557 520.491 525.211 519.222 524.512 518.08L522.806 519.125ZM523.557 521.864C523.557 522.596 523.425 523.313 523.156 524.02L525.026 524.73C525.378 523.801 525.557 522.844 525.557 521.864H523.557ZM523.154 524.025C522.897 524.714 522.426 525.533 521.703 526.487L523.297 527.695C524.089 526.649 524.679 525.657 525.028 524.725L523.154 524.025ZM521.702 526.488C520.981 527.442 519.965 528.627 518.643 530.046L520.107 531.409C521.452 529.964 522.519 528.724 523.298 527.694L521.702 526.488ZM518.645 530.044L513.417 535.635L514.878 537.001L520.105 531.41L518.645 530.044ZM513.148 536.318V536.5H515.148V536.318H513.148ZM514.148 537.5H524.966V535.5H514.148V537.5ZM523.966 536.5V539H525.966V536.5H523.966ZM524.966 538H510.284V540H524.966V538Z" fill="black"/>
</g>
<g filter="url(#filter4_d_73_180)">
<path d="M524.591 278.727V302H521.773V281.682H521.636L515.955 285.455V282.591L521.773 278.727H524.591ZM538.875 302.318C537.163 302.318 535.705 301.852 534.5 300.92C533.295 299.981 532.375 298.621 531.739 296.841C531.102 295.053 530.784 292.894 530.784 290.364C530.784 287.848 531.102 285.701 531.739 283.92C532.383 282.133 533.307 280.769 534.511 279.83C535.723 278.883 537.178 278.409 538.875 278.409C540.572 278.409 542.023 278.883 543.227 279.83C544.439 280.769 545.364 282.133 546 283.92C546.644 285.701 546.966 287.848 546.966 290.364C546.966 292.894 546.648 295.053 546.011 296.841C545.375 298.621 544.455 299.981 543.25 300.92C542.045 301.852 540.587 302.318 538.875 302.318ZM538.875 299.818C540.572 299.818 541.89 299 542.83 297.364C543.769 295.727 544.239 293.394 544.239 290.364C544.239 288.348 544.023 286.633 543.591 285.216C543.167 283.799 542.553 282.72 541.75 281.977C540.955 281.235 539.996 280.864 538.875 280.864C537.193 280.864 535.879 281.693 534.932 283.352C533.985 285.004 533.511 287.341 533.511 290.364C533.511 292.379 533.723 294.091 534.148 295.5C534.572 296.909 535.182 297.981 535.977 298.716C536.78 299.451 537.746 299.818 538.875 299.818Z" fill="black"/>
<path d="M524.591 278.727H525.591V277.727H524.591V278.727ZM524.591 302V303H525.591V302H524.591ZM521.773 302H520.773V303H521.773V302ZM521.773 281.682H522.773V280.682H521.773V281.682ZM521.636 281.682V280.682H521.335L521.083 280.849L521.636 281.682ZM515.955 285.455H514.955V287.319L516.508 286.288L515.955 285.455ZM515.955 282.591L515.401 281.758L514.955 282.055V282.591H515.955ZM521.773 278.727V277.727H521.471L521.22 277.894L521.773 278.727ZM523.591 278.727V302H525.591V278.727H523.591ZM524.591 301H521.773V303H524.591V301ZM522.773 302V281.682H520.773V302H522.773ZM521.773 280.682H521.636V282.682H521.773V280.682ZM521.083 280.849L515.401 284.621L516.508 286.288L522.19 282.515L521.083 280.849ZM516.955 285.455V282.591H514.955V285.455H516.955ZM516.508 283.424L522.326 279.56L521.22 277.894L515.401 281.758L516.508 283.424ZM521.773 279.727H524.591V277.727H521.773V279.727ZM534.5 300.92L533.885 301.709L533.888 301.711L534.5 300.92ZM531.739 296.841L530.797 297.176L530.797 297.177L531.739 296.841ZM531.739 283.92L530.798 283.582L530.797 283.584L531.739 283.92ZM534.511 279.83L535.126 280.618L535.127 280.618L534.511 279.83ZM543.227 279.83L542.609 280.616L542.615 280.62L543.227 279.83ZM546 283.92L545.058 284.256L545.06 284.261L546 283.92ZM546.011 296.841L546.953 297.177L546.953 297.176L546.011 296.841ZM543.25 300.92L543.862 301.711L543.865 301.709L543.25 300.92ZM542.83 297.364L541.962 296.866L541.962 296.866L542.83 297.364ZM543.591 285.216L542.633 285.503L542.634 285.507L543.591 285.216ZM541.75 281.977L541.068 282.708L541.071 282.712L541.75 281.977ZM534.932 283.352L535.799 283.85L535.8 283.848L534.932 283.352ZM534.148 295.5L533.19 295.788L533.19 295.788L534.148 295.5ZM535.977 298.716L535.299 299.45L535.302 299.454L535.977 298.716ZM538.875 301.318C537.355 301.318 536.12 300.909 535.112 300.129L533.888 301.711C535.289 302.795 536.97 303.318 538.875 303.318V301.318ZM535.115 300.132C534.092 299.334 533.268 298.148 532.68 296.504L530.797 297.177C531.482 299.094 532.499 300.628 533.885 301.709L535.115 300.132ZM532.681 296.506C532.093 294.855 531.784 292.815 531.784 290.364H529.784C529.784 292.972 530.111 295.252 530.797 297.176L532.681 296.506ZM531.784 290.364C531.784 287.928 532.093 285.9 532.68 284.257L530.797 283.584C530.112 285.501 529.784 287.769 529.784 290.364H531.784ZM532.679 284.259C533.275 282.606 534.103 281.416 535.126 280.618L533.896 279.041C532.51 280.122 531.49 281.659 530.798 283.582L532.679 284.259ZM535.127 280.618C536.145 279.822 537.377 279.409 538.875 279.409V277.409C536.979 277.409 535.302 277.943 533.896 279.042L535.127 280.618ZM538.875 279.409C540.373 279.409 541.6 279.822 542.609 280.616L543.845 279.043C542.445 277.943 540.771 277.409 538.875 277.409V279.409ZM542.615 280.62C543.643 281.417 544.47 282.605 545.058 284.256L546.942 283.585C546.257 281.66 545.235 280.121 543.84 279.039L542.615 280.62ZM545.06 284.261C545.654 285.903 545.966 287.929 545.966 290.364H547.966C547.966 287.768 547.634 285.499 546.94 283.58L545.06 284.261ZM545.966 290.364C545.966 292.815 545.657 294.855 545.069 296.506L546.953 297.176C547.639 295.252 547.966 292.972 547.966 290.364H545.966ZM545.07 296.504C544.482 298.148 543.658 299.334 542.635 300.132L543.865 301.709C545.251 300.628 546.268 299.094 546.953 297.177L545.07 296.504ZM542.638 300.129C541.63 300.909 540.395 301.318 538.875 301.318V303.318C540.78 303.318 542.461 302.795 543.862 301.711L542.638 300.129ZM538.875 300.818C540.976 300.818 542.603 299.766 543.697 297.862L541.962 296.866C541.177 298.234 540.168 298.818 538.875 298.818V300.818ZM543.697 297.862C544.761 296.008 545.239 293.473 545.239 290.364H543.239C543.239 293.315 542.777 295.446 541.962 296.866L543.697 297.862ZM545.239 290.364C545.239 288.283 545.016 286.463 544.547 284.924L542.634 285.507C543.029 286.803 543.239 288.414 543.239 290.364H545.239ZM544.549 284.929C544.091 283.399 543.402 282.142 542.429 281.243L541.071 282.712C541.704 283.297 542.243 284.199 542.633 285.503L544.549 284.929ZM542.432 281.246C541.446 280.325 540.241 279.864 538.875 279.864V281.864C539.751 281.864 540.464 282.144 541.068 282.708L542.432 281.246ZM538.875 279.864C536.779 279.864 535.159 280.937 534.063 282.857L535.8 283.848C536.598 282.45 537.607 281.864 538.875 281.864V279.864ZM534.064 282.855C532.994 284.722 532.511 287.259 532.511 290.364H534.511C534.511 287.423 534.976 285.286 535.799 283.85L534.064 282.855ZM532.511 290.364C532.511 292.443 532.73 294.258 533.19 295.788L535.105 295.212C534.717 293.923 534.511 292.314 534.511 290.364H532.511ZM533.19 295.788C533.648 297.309 534.333 298.558 535.299 299.45L536.656 297.981C536.03 297.404 535.496 296.509 535.105 295.212L533.19 295.788ZM535.302 299.454C536.297 300.364 537.507 300.818 538.875 300.818V298.818C537.986 298.818 537.264 298.538 536.652 297.978L535.302 299.454Z" fill="black"/>
</g>
<g filter="url(#filter5_d_73_180)">
<path d="M212.864 51.3182C211.303 51.3182 209.924 51.0417 208.727 50.4886C207.538 49.928 206.61 49.1591 205.943 48.1818C205.277 47.197 204.947 46.0758 204.955 44.8182C204.947 43.8333 205.14 42.9242 205.534 42.0909C205.928 41.25 206.466 40.5492 207.148 39.9886C207.837 39.4205 208.606 39.0606 209.455 38.9091V38.7727C208.341 38.4848 207.455 37.8598 206.795 36.8977C206.136 35.928 205.811 34.8258 205.818 33.5909C205.811 32.4091 206.11 31.3523 206.716 30.4205C207.322 29.4886 208.155 28.7538 209.216 28.2159C210.284 27.678 211.5 27.4091 212.864 27.4091C214.212 27.4091 215.417 27.678 216.477 28.2159C217.538 28.7538 218.371 29.4886 218.977 30.4205C219.591 31.3523 219.902 32.4091 219.909 33.5909C219.902 34.8258 219.564 35.928 218.898 36.8977C218.239 37.8598 217.364 38.4848 216.273 38.7727V38.9091C217.114 39.0606 217.871 39.4205 218.545 39.9886C219.22 40.5492 219.758 41.25 220.159 42.0909C220.561 42.9242 220.765 43.8333 220.773 44.8182C220.765 46.0758 220.424 47.197 219.75 48.1818C219.083 49.1591 218.155 49.928 216.966 50.4886C215.784 51.0417 214.417 51.3182 212.864 51.3182ZM212.864 48.8182C213.917 48.8182 214.826 48.6477 215.591 48.3068C216.356 47.9659 216.947 47.4848 217.364 46.8636C217.78 46.2424 217.992 45.5152 218 44.6818C217.992 43.803 217.765 43.0265 217.318 42.3523C216.871 41.678 216.261 41.1477 215.489 40.7614C214.723 40.375 213.848 40.1818 212.864 40.1818C211.871 40.1818 210.985 40.375 210.205 40.7614C209.432 41.1477 208.822 41.678 208.375 42.3523C207.936 43.0265 207.72 43.803 207.727 44.6818C207.72 45.5152 207.92 46.2424 208.33 46.8636C208.746 47.4848 209.341 47.9659 210.114 48.3068C210.886 48.6477 211.803 48.8182 212.864 48.8182ZM212.864 37.7727C213.697 37.7727 214.436 37.6061 215.08 37.2727C215.731 36.9394 216.242 36.4735 216.614 35.875C216.985 35.2765 217.174 34.5758 217.182 33.7727C217.174 32.9848 216.989 32.2992 216.625 31.7159C216.261 31.125 215.758 30.6705 215.114 30.3523C214.47 30.0265 213.72 29.8636 212.864 29.8636C211.992 29.8636 211.231 30.0265 210.58 30.3523C209.928 30.6705 209.424 31.125 209.068 31.7159C208.712 32.2992 208.538 32.9848 208.545 33.7727C208.538 34.5758 208.716 35.2765 209.08 35.875C209.451 36.4735 209.962 36.9394 210.614 37.2727C211.265 37.6061 212.015 37.7727 212.864 37.7727Z" fill="black"/>
<path d="M208.727 50.4886L208.301 51.3932L208.308 51.3964L208.727 50.4886ZM205.943 48.1818L205.115 48.7424L205.117 48.7454L205.943 48.1818ZM204.955 44.8182L205.955 44.8242L205.955 44.8105L204.955 44.8182ZM205.534 42.0909L206.438 42.5183L206.44 42.5151L205.534 42.0909ZM207.148 39.9886L207.783 40.7611L207.784 40.7603L207.148 39.9886ZM209.455 38.9091L209.63 39.8935L210.455 39.7463V38.9091H209.455ZM209.455 38.7727H210.455V37.9984L209.705 37.8046L209.455 38.7727ZM206.795 36.8977L205.968 37.4599L205.97 37.4629L206.795 36.8977ZM205.818 33.5909L206.818 33.597L206.818 33.5845L205.818 33.5909ZM206.716 30.4205L207.554 30.9657L207.554 30.9657L206.716 30.4205ZM209.216 28.2159L208.766 27.3227L208.764 27.324L209.216 28.2159ZM218.977 30.4205L218.139 30.9657L218.142 30.9704L218.977 30.4205ZM219.909 33.5909L220.909 33.597L220.909 33.5845L219.909 33.5909ZM218.898 36.8977L218.074 36.3312L218.073 36.3326L218.898 36.8977ZM216.273 38.7727L216.018 37.8058L215.273 38.0024V38.7727H216.273ZM216.273 38.9091H215.273V39.745L216.095 39.8932L216.273 38.9091ZM218.545 39.9886L217.901 40.7533L217.906 40.7576L218.545 39.9886ZM220.159 42.0909L219.257 42.5218L219.258 42.525L220.159 42.0909ZM220.773 44.8182L221.773 44.8242L221.773 44.8105L220.773 44.8182ZM219.75 48.1818L218.925 47.6169L218.924 47.6183L219.75 48.1818ZM216.966 50.4886L217.39 51.3944L217.392 51.3932L216.966 50.4886ZM215.591 48.3068L215.184 47.3934L215.184 47.3934L215.591 48.3068ZM217.364 46.8636L216.533 46.3066L216.533 46.3066L217.364 46.8636ZM218 44.6818L219 44.6909L219 44.6821L219 44.6732L218 44.6818ZM217.318 42.3523L216.485 42.9048L216.485 42.9048L217.318 42.3523ZM215.489 40.7614L215.038 41.654L215.041 41.6558L215.489 40.7614ZM210.205 40.7614L209.761 39.8652L209.757 39.8669L210.205 40.7614ZM208.375 42.3523L207.541 41.7997L207.537 41.8063L208.375 42.3523ZM207.727 44.6818L208.727 44.6909L208.727 44.6821L208.727 44.6732L207.727 44.6818ZM208.33 46.8636L207.494 47.4136L207.499 47.4207L208.33 46.8636ZM210.114 48.3068L210.517 47.3919L210.114 48.3068ZM215.08 37.2727L214.624 36.3825L214.62 36.3847L215.08 37.2727ZM216.614 35.875L217.463 36.4021L217.463 36.4021L216.614 35.875ZM217.182 33.7727L218.182 33.7822L218.182 33.7726L218.182 33.7631L217.182 33.7727ZM216.625 31.7159L215.773 32.24L215.776 32.2449L216.625 31.7159ZM215.114 30.3523L214.662 31.2446L214.671 31.2488L215.114 30.3523ZM210.58 30.3523L211.018 31.2509L211.027 31.2467L210.58 30.3523ZM209.068 31.7159L209.922 32.2369L209.925 32.232L209.068 31.7159ZM208.545 33.7727L209.545 33.7822L209.545 33.7726L209.545 33.7631L208.545 33.7727ZM209.08 35.875L208.225 36.3943L208.23 36.4021L209.08 35.875ZM212.864 50.3182C211.422 50.3182 210.19 50.063 209.147 49.5808L208.308 51.3964C209.658 52.0203 211.184 52.3182 212.864 52.3182V50.3182ZM209.154 49.5841C208.107 49.0908 207.325 48.4323 206.769 47.6183L205.117 48.7454C205.895 49.8859 206.969 50.7653 208.301 51.3932L209.154 49.5841ZM206.771 47.6213C206.224 46.8135 205.948 45.8921 205.955 44.8242L203.955 44.8122C203.946 46.2594 204.329 47.5805 205.115 48.7424L206.771 47.6213ZM205.955 44.8105C205.948 43.9655 206.113 43.2065 206.438 42.5183L204.63 41.6635C204.167 42.642 203.946 43.7012 203.955 44.8259L205.955 44.8105ZM206.44 42.5151C206.774 41.8018 207.222 41.2223 207.783 40.7611L206.513 39.2162C205.71 39.8762 205.082 40.6982 204.629 41.6667L206.44 42.5151ZM207.784 40.7603C208.346 40.2973 208.957 40.0137 209.63 39.8935L209.279 37.9247C208.255 38.1075 207.329 38.5437 206.512 39.217L207.784 40.7603ZM210.455 38.9091V38.7727H208.455V38.9091H210.455ZM209.705 37.8046C208.829 37.5781 208.145 37.0984 207.62 36.3326L205.97 37.4629C206.764 38.6213 207.853 39.3916 209.204 39.7409L209.705 37.8046ZM207.623 36.3356C207.084 35.5426 206.812 34.6407 206.818 33.597L204.818 33.5848C204.809 35.0108 205.189 36.3134 205.968 37.4599L207.623 36.3356ZM206.818 33.5845C206.812 32.5854 207.062 31.7228 207.554 30.9657L205.878 29.8752C205.158 30.9817 204.809 32.2328 204.818 33.5973L206.818 33.5845ZM207.554 30.9657C208.058 30.1917 208.753 29.5718 209.668 29.1078L208.764 27.324C207.557 27.9357 206.586 28.7856 205.878 29.8752L207.554 30.9657ZM209.666 29.1091C210.576 28.6507 211.634 28.4091 212.864 28.4091V26.4091C211.366 26.4091 209.992 26.7053 208.766 27.3228L209.666 29.1091ZM212.864 28.4091C214.076 28.4091 215.122 28.65 216.025 29.1078L216.93 27.324C215.711 26.7061 214.348 26.4091 212.864 26.4091V28.4091ZM216.025 29.1078C216.94 29.5718 217.636 30.1917 218.139 30.9657L219.816 29.8752C219.107 28.7856 218.136 27.9357 216.93 27.324L216.025 29.1078ZM218.142 30.9704C218.643 31.7311 218.903 32.5968 218.909 33.5973L220.909 33.5845C220.9 32.2214 220.539 30.9735 219.812 29.8705L218.142 30.9704ZM218.909 33.5848C218.903 34.6299 218.621 35.5349 218.074 36.3312L219.722 37.4643C220.508 36.3212 220.9 35.0216 220.909 33.597L218.909 33.5848ZM218.073 36.3326C217.544 37.104 216.868 37.5814 216.018 37.8058L216.528 39.7396C217.859 39.3883 218.933 38.6157 219.723 37.4629L218.073 36.3326ZM215.273 38.7727V38.9091H217.273V38.7727H215.273ZM216.095 39.8932C216.758 40.0127 217.356 40.2941 217.901 40.7533L219.19 39.2239C218.386 38.5468 217.469 38.1085 216.45 37.9249L216.095 39.8932ZM217.906 40.7576C218.462 41.2201 218.913 41.8029 219.257 42.5218L221.062 41.66C220.602 40.6971 219.977 39.8784 219.185 39.2197L217.906 40.7576ZM219.258 42.525C219.592 43.2167 219.766 43.979 219.773 44.8259L221.773 44.8105C221.764 43.6877 221.53 42.6318 221.06 41.6568L219.258 42.525ZM219.773 44.8122C219.766 45.8815 219.48 46.8058 218.925 47.6169L220.575 48.7467C221.368 47.5881 221.764 46.27 221.773 44.8242L219.773 44.8122ZM218.924 47.6183C218.369 48.4323 217.586 49.0908 216.54 49.5841L217.392 51.3932C218.724 50.7653 219.798 49.8859 220.576 48.7454L218.924 47.6183ZM216.542 49.5829C215.516 50.0632 214.298 50.3182 212.864 50.3182V52.3182C214.536 52.3182 216.052 52.0202 217.39 51.3944L216.542 49.5829ZM212.864 49.8182C214.022 49.8182 215.076 49.6309 215.998 49.2203L215.184 47.3934C214.575 47.6645 213.811 47.8182 212.864 47.8182V49.8182ZM215.998 49.2203C216.914 48.8122 217.66 48.2164 218.194 47.4207L216.533 46.3066C216.234 46.7533 215.798 47.1196 215.184 47.3934L215.998 49.2203ZM218.194 47.4207C218.732 46.6191 218.991 45.6964 219 44.6909L217 44.6727C216.994 45.3339 216.829 45.8657 216.533 46.3066L218.194 47.4207ZM219 44.6732C218.991 43.6182 218.715 42.6493 218.152 41.7997L216.485 42.9048C216.815 43.4037 216.994 43.9878 217 44.6904L219 44.6732ZM218.152 41.7997C217.601 40.9698 216.854 40.326 215.936 39.8669L215.041 41.6558C215.669 41.9694 216.141 42.3863 216.485 42.9048L218.152 41.7997ZM215.939 39.8687C215.015 39.4019 213.982 39.1818 212.864 39.1818V41.1818C213.715 41.1818 214.432 41.3481 215.038 41.654L215.939 39.8687ZM212.864 39.1818C211.739 39.1818 210.697 39.4016 209.761 39.8652L210.648 41.6575C211.272 41.3484 212.004 41.1818 212.864 41.1818V39.1818ZM209.757 39.8669C208.839 40.326 208.092 40.9698 207.542 41.7997L209.208 42.9048C209.552 42.3863 210.024 41.9694 210.652 41.6558L209.757 39.8669ZM207.537 41.8063C206.98 42.6606 206.718 43.6337 206.727 44.6904L208.727 44.6732C208.721 43.9723 208.891 43.3925 209.213 42.8983L207.537 41.8063ZM206.727 44.6727C206.718 45.6799 206.963 46.607 207.494 47.4136L209.165 46.3136C208.878 45.8779 208.721 45.3504 208.727 44.6909L206.727 44.6727ZM207.499 47.4207C208.034 48.2189 208.787 48.8145 209.71 49.2217L210.517 47.3919C209.895 47.1173 209.458 46.7508 209.16 46.3066L207.499 47.4207ZM209.71 49.2217C210.638 49.6311 211.698 49.8182 212.864 49.8182V47.8182C211.908 47.8182 211.135 47.6643 210.517 47.3919L209.71 49.2217ZM212.864 38.7727C213.833 38.7727 214.733 38.578 215.539 38.1608L214.62 36.3847C214.138 36.6341 213.561 36.7727 212.864 36.7727V38.7727ZM215.535 38.163C216.342 37.7501 216.992 37.1615 217.463 36.4021L215.764 35.3479C215.492 35.7855 215.12 36.1287 214.624 36.3825L215.535 38.163ZM217.463 36.4021C217.944 35.6272 218.173 34.742 218.182 33.7822L216.182 33.7633C216.176 34.4095 216.026 34.9259 215.764 35.3479L217.463 36.4021ZM218.182 33.7631C218.173 32.8189 217.948 31.9479 217.474 31.1869L215.776 32.2449C216.029 32.6506 216.176 33.1508 216.182 33.7823L218.182 33.7631ZM217.477 31.1918C217.011 30.435 216.363 29.8541 215.557 29.4557L214.671 31.2488C215.152 31.4868 215.512 31.815 215.773 32.24L217.477 31.1918ZM215.565 29.46C214.757 29.0514 213.847 28.8636 212.864 28.8636V30.8636C213.592 30.8636 214.182 31.0017 214.662 31.2446L215.565 29.46ZM212.864 28.8636C211.867 28.8636 210.947 29.0503 210.132 29.4578L211.027 31.2467C211.515 31.0027 212.118 30.8636 212.864 30.8636V28.8636ZM210.141 29.4537C209.325 29.8519 208.672 30.4352 208.212 31.1998L209.925 32.232C210.176 31.8148 210.531 31.489 211.018 31.2508L210.141 29.4537ZM208.215 31.1949C207.747 31.9611 207.536 32.8366 207.546 33.7823L209.545 33.7631C209.539 33.1331 209.677 32.6373 209.922 32.2369L208.215 31.1949ZM207.545 33.7633C207.536 34.7247 207.751 35.6142 208.225 36.3943L209.934 35.3557C209.681 34.9388 209.539 34.4268 209.545 33.7822L207.545 33.7633ZM208.23 36.4021C208.701 37.1615 209.351 37.7501 210.158 38.163L211.069 36.3825C210.573 36.1287 210.201 35.7855 209.929 35.3479L208.23 36.4021ZM210.158 38.163C210.972 38.5791 211.882 38.7727 212.864 38.7727V36.7727C212.148 36.7727 211.559 36.633 211.069 36.3825L210.158 38.163Z" fill="black"/>
</g>
<g filter="url(#filter6_d_73_180)">
<path d="M406.136 53L416.545 32.4091V32.2273H404.545V29.7273H419.455V32.3636L409.091 53H406.136Z" fill="black"/>
<path d="M406.136 53L405.244 52.5489L404.51 54H406.136V53ZM416.545 32.4091L417.438 32.8602L417.545 32.6475V32.4091H416.545ZM416.545 32.2273H417.545V31.2273H416.545V32.2273ZM404.545 32.2273H403.545V33.2273H404.545V32.2273ZM404.545 29.7273V28.7273H403.545V29.7273H404.545ZM419.455 29.7273H420.455V28.7273H419.455V29.7273ZM419.455 32.3636L420.348 32.8124L420.455 32.6006V32.3636H419.455ZM409.091 53V54H409.708L409.985 53.4488L409.091 53ZM407.029 53.4511L417.438 32.8602L415.653 31.9579L405.244 52.5489L407.029 53.4511ZM417.545 32.4091V32.2273H415.545V32.4091H417.545ZM416.545 31.2273H404.545V33.2273H416.545V31.2273ZM405.545 32.2273V29.7273H403.545V32.2273H405.545ZM404.545 30.7273H419.455V28.7273H404.545V30.7273ZM418.455 29.7273V32.3636H420.455V29.7273H418.455ZM418.561 31.9148L408.197 52.5512L409.985 53.4488L420.348 32.8124L418.561 31.9148ZM409.091 52H406.136V54H409.091V52Z" fill="black"/>
</g>
<g filter="url(#filter7_d_73_180)">
<path d="M234.818 296.409C235.773 296.417 236.727 296.598 237.682 296.955C238.636 297.311 239.508 297.902 240.295 298.727C241.083 299.545 241.716 300.663 242.193 302.08C242.67 303.496 242.909 305.273 242.909 307.409C242.909 309.477 242.712 311.314 242.318 312.92C241.932 314.519 241.371 315.867 240.636 316.966C239.909 318.064 239.023 318.898 237.977 319.466C236.939 320.034 235.765 320.318 234.455 320.318C233.152 320.318 231.989 320.061 230.966 319.545C229.951 319.023 229.117 318.299 228.466 317.375C227.822 316.443 227.409 315.364 227.227 314.136H230C230.25 315.205 230.746 316.087 231.489 316.784C232.239 317.473 233.227 317.818 234.455 317.818C236.25 317.818 237.667 317.034 238.705 315.466C239.75 313.898 240.273 311.682 240.273 308.818H240.091C239.667 309.455 239.163 310.004 238.58 310.466C237.996 310.928 237.348 311.284 236.636 311.534C235.924 311.784 235.167 311.909 234.364 311.909C233.03 311.909 231.807 311.58 230.693 310.92C229.587 310.254 228.701 309.341 228.034 308.182C227.375 307.015 227.045 305.682 227.045 304.182C227.045 302.758 227.364 301.455 228 300.273C228.644 299.083 229.545 298.136 230.705 297.432C231.871 296.727 233.242 296.386 234.818 296.409ZM234.818 298.909C233.864 298.909 233.004 299.148 232.239 299.625C231.481 300.095 230.879 300.731 230.432 301.534C229.992 302.33 229.773 303.212 229.773 304.182C229.773 305.152 229.985 306.034 230.409 306.83C230.841 307.617 231.428 308.246 232.17 308.716C232.92 309.178 233.773 309.409 234.727 309.409C235.447 309.409 236.117 309.269 236.739 308.989C237.36 308.701 237.902 308.311 238.364 307.818C238.833 307.318 239.201 306.754 239.466 306.125C239.731 305.489 239.864 304.826 239.864 304.136C239.864 303.227 239.644 302.375 239.205 301.58C238.773 300.784 238.174 300.14 237.409 299.648C236.652 299.155 235.788 298.909 234.818 298.909Z" fill="black"/>
<path d="M234.818 296.409L234.804 297.409L234.81 297.409L234.818 296.409ZM237.682 296.955L238.031 296.018L238.031 296.018L237.682 296.955ZM240.295 298.727L239.572 299.418L239.575 299.421L240.295 298.727ZM242.193 302.08L241.246 302.399L241.246 302.399L242.193 302.08ZM242.318 312.92L241.347 312.682L241.346 312.686L242.318 312.92ZM240.636 316.966L239.805 316.41L239.803 316.414L240.636 316.966ZM237.977 319.466L237.5 318.587L237.497 318.589L237.977 319.466ZM230.966 319.545L230.508 320.435L230.516 320.439L230.966 319.545ZM228.466 317.375L227.643 317.944L227.649 317.951L228.466 317.375ZM227.227 314.136V313.136H226.068L226.238 314.283L227.227 314.136ZM230 314.136L230.974 313.908L230.793 313.136H230V314.136ZM231.489 316.784L230.804 317.513L230.812 317.52L231.489 316.784ZM238.705 315.466L237.872 314.911L237.871 314.914L238.705 315.466ZM240.273 308.818H241.273V307.818H240.273V308.818ZM240.091 308.818V307.818H239.556L239.259 308.263L240.091 308.818ZM230.693 310.92L230.177 311.777L230.184 311.781L230.693 310.92ZM228.034 308.182L227.163 308.674L227.167 308.68L228.034 308.182ZM228 300.273L227.121 299.797L227.12 299.799L228 300.273ZM230.705 297.432L230.188 296.576L230.185 296.577L230.705 297.432ZM232.239 299.625L232.766 300.475L232.768 300.473L232.239 299.625ZM230.432 301.534L229.558 301.048L229.556 301.051L230.432 301.534ZM230.409 306.83L229.527 307.3L229.532 307.31L230.409 306.83ZM232.17 308.716L231.636 309.561L231.646 309.567L232.17 308.716ZM236.739 308.989L237.15 309.9L237.159 309.896L236.739 308.989ZM238.364 307.818L237.635 307.134L237.634 307.134L238.364 307.818ZM239.466 306.125L240.387 306.514L240.389 306.51L239.466 306.125ZM239.205 301.58L238.326 302.057L238.329 302.063L239.205 301.58ZM237.409 299.648L236.864 300.486L236.868 300.489L237.409 299.648ZM234.81 297.409C235.64 297.416 236.48 297.573 237.332 297.891L238.031 296.018C236.975 295.624 235.905 295.418 234.826 295.409L234.81 297.409ZM237.332 297.891C238.129 298.189 238.876 298.688 239.572 299.418L241.019 298.037C240.139 297.115 239.144 296.433 238.031 296.018L237.332 297.891ZM239.575 299.421C240.233 300.105 240.801 301.08 241.246 302.399L243.141 301.76C242.631 300.246 241.933 298.986 241.016 298.034L239.575 299.421ZM241.246 302.399C241.677 303.679 241.909 305.339 241.909 307.409H243.909C243.909 305.207 243.664 303.314 243.141 301.76L241.246 302.399ZM241.909 307.409C241.909 309.416 241.718 311.171 241.347 312.682L243.289 313.159C243.707 311.458 243.909 309.538 243.909 307.409H241.909ZM241.346 312.686C240.981 314.196 240.461 315.43 239.805 316.41L241.468 317.522C242.282 316.305 242.883 314.841 243.29 313.155L241.346 312.686ZM239.803 316.414C239.156 317.391 238.387 318.105 237.5 318.587L238.455 320.345C239.659 319.69 240.662 318.738 241.47 317.518L239.803 316.414ZM237.497 318.589C236.622 319.068 235.616 319.318 234.455 319.318V321.318C235.915 321.318 237.257 321 238.457 320.343L237.497 318.589ZM234.455 319.318C233.286 319.318 232.281 319.088 231.416 318.652L230.516 320.439C231.696 321.033 233.017 321.318 234.455 321.318V319.318ZM231.424 318.656C230.55 318.207 229.841 317.59 229.283 316.799L227.649 317.951C228.394 319.008 229.351 319.839 230.508 320.435L231.424 318.656ZM229.289 316.806C228.74 316.012 228.378 315.08 228.216 313.99L226.238 314.283C226.44 315.647 226.904 316.874 227.643 317.944L229.289 316.806ZM227.227 315.136H230V313.136H227.227V315.136ZM229.026 314.364C229.318 315.609 229.907 316.671 230.804 317.513L232.173 316.055C231.586 315.503 231.182 314.8 230.974 313.908L229.026 314.364ZM230.812 317.52C231.783 318.413 233.031 318.818 234.455 318.818V316.818C233.424 316.818 232.694 316.534 232.165 316.048L230.812 317.52ZM234.455 318.818C236.604 318.818 238.326 317.85 239.538 316.018L237.871 314.914C237.007 316.218 235.896 316.818 234.455 316.818V318.818ZM239.537 316.021C240.735 314.223 241.273 311.784 241.273 308.818H239.273C239.273 311.58 238.765 313.572 237.872 314.911L239.537 316.021ZM240.273 307.818H240.091V309.818H240.273V307.818ZM239.259 308.263C238.891 308.815 238.458 309.287 237.959 309.682L239.201 311.25C239.868 310.721 240.442 310.094 240.923 309.373L239.259 308.263ZM237.959 309.682C237.464 310.074 236.914 310.377 236.305 310.591L236.968 312.478C237.783 312.191 238.529 311.782 239.201 311.25L237.959 309.682ZM236.305 310.591C235.706 310.801 235.061 310.909 234.364 310.909V312.909C235.272 312.909 236.142 312.767 236.968 312.478L236.305 310.591ZM234.364 310.909C233.204 310.909 232.157 310.625 231.203 310.06L230.184 311.781C231.457 312.534 232.857 312.909 234.364 312.909V310.909ZM231.209 310.064C230.254 309.488 229.486 308.701 228.901 307.683L227.167 308.68C227.915 309.981 228.92 311.019 230.177 311.777L231.209 310.064ZM228.905 307.69C228.34 306.691 228.045 305.53 228.045 304.182H226.045C226.045 305.833 226.41 307.34 227.163 308.674L228.905 307.69ZM228.045 304.182C228.045 302.913 228.327 301.774 228.88 300.747L227.12 299.799C226.4 301.135 226.045 302.603 226.045 304.182H228.045ZM228.879 300.749C229.439 299.716 230.216 298.899 231.224 298.286L230.185 296.577C228.875 297.374 227.849 298.451 227.121 299.797L228.879 300.749ZM231.221 298.288C232.204 297.694 233.385 297.389 234.804 297.409L234.833 295.409C233.1 295.384 231.538 295.76 230.188 296.576L231.221 298.288ZM234.818 297.909C233.688 297.909 232.643 298.194 231.709 298.777L232.768 300.473C233.365 300.101 234.039 299.909 234.818 299.909V297.909ZM231.712 298.775C230.805 299.337 230.085 300.101 229.558 301.048L231.306 302.02C231.672 301.361 232.157 300.852 232.766 300.475L231.712 298.775ZM229.556 301.051C229.03 302.004 228.773 303.055 228.773 304.182H230.773C230.773 303.37 230.955 302.655 231.307 302.018L229.556 301.051ZM228.773 304.182C228.773 305.303 229.019 306.349 229.527 307.3L231.291 306.359C230.95 305.719 230.773 305 230.773 304.182H228.773ZM229.532 307.31C230.043 308.243 230.747 308.999 231.636 309.561L232.705 307.871C232.109 307.494 231.638 306.992 231.286 306.349L229.532 307.31ZM231.646 309.567C232.567 310.135 233.604 310.409 234.727 310.409V308.409C233.942 308.409 233.274 308.221 232.695 307.865L231.646 309.567ZM234.727 310.409C235.581 310.409 236.392 310.242 237.15 309.9L236.327 308.077C235.843 308.296 235.313 308.409 234.727 308.409V310.409ZM237.159 309.896C237.895 309.555 238.542 309.09 239.093 308.502L237.634 307.134C237.261 307.532 236.825 307.847 236.318 308.081L237.159 309.896ZM239.092 308.503C239.643 307.917 240.076 307.252 240.387 306.514L238.544 305.736C238.326 306.255 238.024 306.72 237.635 307.134L239.092 308.503ZM240.389 306.51C240.705 305.751 240.864 304.958 240.864 304.136H238.864C238.864 304.694 238.757 305.226 238.543 305.74L240.389 306.51ZM240.864 304.136C240.864 303.058 240.601 302.04 240.08 301.096L238.329 302.063C238.687 302.71 238.864 303.396 238.864 304.136H240.864ZM240.083 301.102C239.571 300.158 238.856 299.39 237.95 298.807L236.868 300.489C237.493 300.891 237.975 301.41 238.326 302.057L240.083 301.102ZM237.954 298.809C237.022 298.204 235.967 297.909 234.818 297.909V299.909C235.609 299.909 236.281 300.107 236.864 300.486L237.954 298.809Z" fill="black"/>
</g>
<g filter="url(#filter8_d_73_180)">
<path d="M39.6818 371.318C38.3485 371.318 37.1477 371.053 36.0795 370.523C35.0114 369.992 34.1553 369.265 33.5114 368.341C32.8674 367.417 32.5152 366.364 32.4545 365.182H35.1818C35.2879 366.235 35.7652 367.106 36.6136 367.795C37.4697 368.477 38.4924 368.818 39.6818 368.818C40.6364 368.818 41.4848 368.595 42.2273 368.148C42.9773 367.701 43.5644 367.087 43.9886 366.307C44.4205 365.519 44.6364 364.629 44.6364 363.636C44.6364 362.621 44.4129 361.716 43.9659 360.92C43.5265 360.117 42.9205 359.485 42.1477 359.023C41.375 358.561 40.4924 358.326 39.5 358.318C38.7879 358.311 38.0568 358.42 37.3068 358.648C36.5568 358.867 35.9394 359.152 35.4545 359.5L32.8182 359.182L34.2273 347.727H46.3182V350.227H36.5909L35.7727 357.091H35.9091C36.3864 356.712 36.9848 356.398 37.7045 356.148C38.4242 355.898 39.1742 355.773 39.9545 355.773C41.3788 355.773 42.6477 356.114 43.7614 356.795C44.8826 357.47 45.7614 358.394 46.3977 359.568C47.0417 360.742 47.3636 362.083 47.3636 363.591C47.3636 365.076 47.0303 366.402 46.3636 367.568C45.7045 368.727 44.7955 369.644 43.6364 370.318C42.4773 370.985 41.1591 371.318 39.6818 371.318Z" fill="black"/>
<path d="M36.0795 370.523L35.6349 371.418L35.6349 371.418L36.0795 370.523ZM33.5114 368.341L34.3319 367.769L34.3319 367.769L33.5114 368.341ZM32.4545 365.182V364.182H31.4019L31.4559 365.233L32.4545 365.182ZM35.1818 365.182L36.1768 365.082L36.0862 364.182H35.1818V365.182ZM36.6136 367.795L35.983 368.572L35.9906 368.578L36.6136 367.795ZM42.2273 368.148L41.7153 367.289L41.7115 367.291L42.2273 368.148ZM43.9886 366.307L43.1117 365.826L43.1101 365.829L43.9886 366.307ZM43.9659 360.92L43.0886 361.4L43.0941 361.41L43.9659 360.92ZM39.5 358.318L39.4894 359.318L39.4924 359.318L39.5 358.318ZM37.3068 358.648L37.5879 359.607L37.5968 359.605L37.3068 358.648ZM35.4545 359.5L35.3347 360.493L35.7217 360.539L36.0382 360.312L35.4545 359.5ZM32.8182 359.182L31.8257 359.06L31.7033 360.055L32.6984 360.175L32.8182 359.182ZM34.2273 347.727V346.727H33.3428L33.2348 347.605L34.2273 347.727ZM46.3182 347.727H47.3182V346.727H46.3182V347.727ZM46.3182 350.227V351.227H47.3182V350.227H46.3182ZM36.5909 350.227V349.227H35.703L35.5979 350.109L36.5909 350.227ZM35.7727 357.091L34.7798 356.973L34.6464 358.091H35.7727V357.091ZM35.9091 357.091V358.091H36.2577L36.5307 357.874L35.9091 357.091ZM43.7614 356.795L43.2392 357.648L43.246 357.652L43.7614 356.795ZM46.3977 359.568L45.5185 360.045L45.5209 360.049L46.3977 359.568ZM46.3636 367.568L45.4954 367.072L45.4943 367.074L46.3636 367.568ZM43.6364 370.318L44.1349 371.185L44.1392 371.183L43.6364 370.318ZM39.6818 370.318C38.4844 370.318 37.4386 370.081 36.5242 369.627L35.6349 371.418C36.8568 372.025 38.2126 372.318 39.6818 372.318V370.318ZM36.5242 369.627C35.5974 369.167 34.8741 368.547 34.3319 367.769L32.6909 368.913C33.4365 369.983 34.4253 370.818 35.6349 371.418L36.5242 369.627ZM34.3319 367.769C33.8003 367.006 33.5048 366.136 33.4532 365.131L31.4559 365.233C31.5255 366.592 31.9345 367.827 32.6909 368.913L34.3319 367.769ZM32.4545 366.182H35.1818V364.182H32.4545V366.182ZM34.1869 365.282C34.3206 366.609 34.9356 367.721 35.983 368.572L37.2442 367.019C36.5947 366.492 36.2552 365.86 36.1768 365.082L34.1869 365.282ZM35.9906 368.578C37.0395 369.413 38.2871 369.818 39.6818 369.818V367.818C38.6978 367.818 37.8999 367.542 37.2366 367.013L35.9906 368.578ZM39.6818 369.818C40.7991 369.818 41.8294 369.555 42.7431 369.004L41.7115 367.291C41.1403 367.635 40.4736 367.818 39.6818 367.818V369.818ZM42.7392 369.007C43.6462 368.466 44.3587 367.72 44.8672 366.784L43.1101 365.829C42.77 366.455 42.3083 366.935 41.7153 367.289L42.7392 369.007ZM44.8656 366.787C45.3863 365.837 45.6364 364.779 45.6364 363.636H43.6364C43.6364 364.479 43.4546 365.201 43.1117 365.826L44.8656 366.787ZM45.6364 363.636C45.6364 362.469 45.3779 361.392 44.8377 360.431L43.0941 361.41C43.4479 362.04 43.6364 362.773 43.6364 363.636H45.6364ZM44.8432 360.44C44.3198 359.484 43.5892 358.72 42.661 358.164L41.6345 359.881C42.2517 360.25 42.7332 360.751 43.0886 361.4L44.8432 360.44ZM42.661 358.164C41.72 357.602 40.6595 357.327 39.5076 357.318L39.4924 359.318C40.3254 359.325 41.03 359.519 41.6345 359.881L42.661 358.164ZM39.5106 357.318C38.687 357.309 37.8545 357.437 37.0168 357.691L37.5968 359.605C38.2591 359.404 38.8887 359.312 39.4894 359.318L39.5106 357.318ZM37.0257 357.688C36.1989 357.93 35.4709 358.257 34.8709 358.688L36.0382 360.312C36.4079 360.046 36.9148 359.805 37.5879 359.607L37.0257 357.688ZM35.5744 358.507L32.938 358.189L32.6984 360.175L35.3347 360.493L35.5744 358.507ZM33.8107 359.304L35.2198 347.849L33.2348 347.605L31.8257 359.06L33.8107 359.304ZM34.2273 348.727H46.3182V346.727H34.2273V348.727ZM45.3182 347.727V350.227H47.3182V347.727H45.3182ZM46.3182 349.227H36.5909V351.227H46.3182V349.227ZM35.5979 350.109L34.7798 356.973L36.7657 357.209L37.5839 350.346L35.5979 350.109ZM35.7727 358.091H35.9091V356.091H35.7727V358.091ZM36.5307 357.874C36.901 357.58 37.3937 357.314 38.0327 357.092L37.3764 355.203C36.576 355.481 35.8717 355.844 35.2874 356.308L36.5307 357.874ZM38.0327 357.092C38.6443 356.88 39.2832 356.773 39.9545 356.773V354.773C39.0653 354.773 38.2042 354.916 37.3764 355.203L38.0327 357.092ZM39.9545 356.773C41.2118 356.773 42.2969 357.071 43.2392 357.648L44.2835 355.943C42.9986 355.156 41.5458 354.773 39.9545 354.773V356.773ZM43.246 357.652C44.2108 358.233 44.9654 359.024 45.5185 360.045L47.2769 359.092C46.5573 357.764 45.5543 356.707 44.2767 355.938L43.246 357.652ZM45.5209 360.049C46.0743 361.058 46.3636 362.23 46.3636 363.591H48.3636C48.3636 361.937 48.009 360.427 47.2745 359.087L45.5209 360.049ZM46.3636 363.591C46.3636 364.92 46.0669 366.072 45.4954 367.072L47.2319 368.064C47.9937 366.731 48.3636 365.231 48.3636 363.591H46.3636ZM45.4943 367.074C44.9231 368.078 44.1408 368.868 43.1335 369.454L44.1392 371.183C45.4501 370.42 46.486 369.376 47.2329 368.062L45.4943 367.074ZM43.1378 369.451C42.1459 370.022 41.0029 370.318 39.6818 370.318V372.318C41.3153 372.318 42.8087 371.948 44.1349 371.185L43.1378 369.451Z" fill="black"/>
</g>
<g filter="url(#filter9_d_73_180)">
<path d="M169.409 541V538.955L177.091 530.545C177.992 529.561 178.735 528.705 179.318 527.977C179.902 527.242 180.333 526.553 180.614 525.909C180.902 525.258 181.045 524.576 181.045 523.864C181.045 523.045 180.848 522.337 180.455 521.739C180.068 521.14 179.538 520.678 178.864 520.352C178.189 520.027 177.432 519.864 176.591 519.864C175.697 519.864 174.917 520.049 174.25 520.42C173.591 520.784 173.08 521.295 172.716 521.955C172.36 522.614 172.182 523.386 172.182 524.273H169.5C169.5 522.909 169.814 521.712 170.443 520.682C171.072 519.652 171.928 518.848 173.011 518.273C174.102 517.697 175.326 517.409 176.682 517.409C178.045 517.409 179.254 517.697 180.307 518.273C181.36 518.848 182.186 519.625 182.784 520.602C183.383 521.58 183.682 522.667 183.682 523.864C183.682 524.72 183.527 525.557 183.216 526.375C182.913 527.186 182.383 528.091 181.625 529.091C180.875 530.083 179.833 531.295 178.5 532.727L173.273 538.318V538.5H184.091V541H169.409Z" fill="black"/>
<path d="M169.409 541H168.409V542H169.409V541ZM169.409 538.955L168.671 538.28L168.409 538.567V538.955H169.409ZM177.091 530.545L176.353 529.87L176.353 529.871L177.091 530.545ZM179.318 527.977L180.098 528.603L180.101 528.599L179.318 527.977ZM180.614 525.909L179.699 525.505L179.697 525.51L180.614 525.909ZM180.455 521.739L179.614 522.281L179.619 522.288L180.455 521.739ZM178.864 520.352L179.299 519.452L179.299 519.452L178.864 520.352ZM174.25 520.42L174.733 521.296L174.736 521.294L174.25 520.42ZM172.716 521.955L171.84 521.471L171.836 521.479L172.716 521.955ZM172.182 524.273V525.273H173.182V524.273H172.182ZM169.5 524.273H168.5V525.273H169.5V524.273ZM170.443 520.682L171.297 521.203L171.297 521.203L170.443 520.682ZM173.011 518.273L172.545 517.388L172.542 517.39L173.011 518.273ZM180.307 518.273L180.787 517.395L180.787 517.395L180.307 518.273ZM182.784 520.602L181.931 521.125L182.784 520.602ZM183.216 526.375L182.281 526.02L182.279 526.025L183.216 526.375ZM181.625 529.091L180.828 528.487L180.827 528.488L181.625 529.091ZM178.5 532.727L179.23 533.41L179.232 533.409L178.5 532.727ZM173.273 538.318L172.542 537.635L172.273 537.924V538.318H173.273ZM173.273 538.5H172.273V539.5H173.273V538.5ZM184.091 538.5H185.091V537.5H184.091V538.5ZM184.091 541V542H185.091V541H184.091ZM170.409 541V538.955H168.409V541H170.409ZM170.147 539.629L177.829 531.22L176.353 529.871L168.671 538.28L170.147 539.629ZM177.829 531.221C178.739 530.226 179.497 529.353 180.098 528.603L178.538 527.352C177.973 528.056 177.246 528.895 176.353 529.87L177.829 531.221ZM180.101 528.599C180.722 527.817 181.206 527.053 181.531 526.308L179.697 525.51C179.461 526.053 179.081 526.668 178.535 527.356L180.101 528.599ZM181.528 526.313C181.872 525.534 182.045 524.715 182.045 523.864H180.045C180.045 524.437 179.931 524.981 179.699 525.505L181.528 526.313ZM182.045 523.864C182.045 522.879 181.806 521.973 181.29 521.189L179.619 522.288C179.891 522.701 180.045 523.212 180.045 523.864H182.045ZM181.295 521.196C180.804 520.435 180.129 519.853 179.299 519.452L178.429 521.253C178.946 521.503 179.333 521.845 179.614 522.281L181.295 521.196ZM179.299 519.452C178.473 519.053 177.564 518.864 176.591 518.864V520.864C177.3 520.864 177.906 521 178.429 521.253L179.299 519.452ZM176.591 518.864C175.556 518.864 174.603 519.08 173.764 519.547L174.736 521.294C175.231 521.019 175.838 520.864 176.591 520.864V518.864ZM173.767 519.545C172.943 520 172.295 520.647 171.84 521.471L173.591 522.438C173.864 521.944 174.239 521.568 174.733 521.296L173.767 519.545ZM171.836 521.479C171.388 522.309 171.182 523.251 171.182 524.273H173.182C173.182 523.522 173.332 522.918 173.596 522.43L171.836 521.479ZM172.182 523.273H169.5V525.273H172.182V523.273ZM170.5 524.273C170.5 523.068 170.776 522.057 171.297 521.203L169.59 520.161C168.853 521.368 168.5 522.75 168.5 524.273H170.5ZM171.297 521.203C171.831 520.328 172.553 519.649 173.481 519.156L172.542 517.39C171.303 518.048 170.313 518.975 169.59 520.161L171.297 521.203ZM173.478 519.157C174.411 518.665 175.472 518.409 176.682 518.409V516.409C175.18 516.409 173.793 516.729 172.545 517.388L173.478 519.157ZM176.682 518.409C177.901 518.409 178.94 518.665 179.827 519.15L180.787 517.395C179.567 516.729 178.19 516.409 176.682 516.409V518.409ZM179.827 519.15C180.734 519.646 181.428 520.303 181.931 521.125L183.637 520.08C182.943 518.947 181.985 518.051 180.787 517.395L179.827 519.15ZM181.931 521.125C182.429 521.937 182.682 522.842 182.682 523.864H184.682C184.682 522.491 184.336 521.222 183.637 520.08L181.931 521.125ZM182.682 523.864C182.682 524.596 182.55 525.313 182.281 526.02L184.151 526.73C184.503 525.801 184.682 524.844 184.682 523.864H182.682ZM182.279 526.025C182.022 526.714 181.551 527.533 180.828 528.487L182.422 529.695C183.214 528.649 183.804 527.657 184.153 526.725L182.279 526.025ZM180.827 528.488C180.106 529.442 179.09 530.627 177.768 532.046L179.232 533.409C180.577 531.964 181.644 530.724 182.423 529.694L180.827 528.488ZM177.77 532.044L172.542 537.635L174.003 539.001L179.23 533.41L177.77 532.044ZM172.273 538.318V538.5H174.273V538.318H172.273ZM173.273 539.5H184.091V537.5H173.273V539.5ZM183.091 538.5V541H185.091V538.5H183.091ZM184.091 540H169.409V542H184.091V540Z" fill="black"/>
</g>
<g filter="url(#filter10_d_73_180)">
<path d="M176.273 461.318C174.773 461.318 173.436 461.061 172.261 460.545C171.095 460.03 170.167 459.314 169.477 458.398C168.795 457.473 168.424 456.402 168.364 455.182H171.227C171.288 455.932 171.545 456.58 172 457.125C172.455 457.663 173.049 458.08 173.784 458.375C174.519 458.67 175.333 458.818 176.227 458.818C177.227 458.818 178.114 458.644 178.886 458.295C179.659 457.947 180.265 457.462 180.705 456.841C181.144 456.22 181.364 455.5 181.364 454.682C181.364 453.826 181.152 453.072 180.727 452.42C180.303 451.761 179.682 451.246 178.864 450.875C178.045 450.504 177.045 450.318 175.864 450.318H174V447.818H175.864C176.788 447.818 177.598 447.652 178.295 447.318C179 446.985 179.549 446.515 179.943 445.909C180.345 445.303 180.545 444.591 180.545 443.773C180.545 442.985 180.371 442.299 180.023 441.716C179.674 441.133 179.182 440.678 178.545 440.352C177.917 440.027 177.174 439.864 176.318 439.864C175.515 439.864 174.758 440.011 174.045 440.307C173.341 440.595 172.765 441.015 172.318 441.568C171.871 442.114 171.629 442.773 171.591 443.545H168.864C168.909 442.326 169.277 441.258 169.966 440.341C170.655 439.417 171.557 438.697 172.67 438.182C173.792 437.667 175.023 437.409 176.364 437.409C177.803 437.409 179.038 437.701 180.068 438.284C181.098 438.86 181.89 439.621 182.443 440.568C182.996 441.515 183.273 442.538 183.273 443.636C183.273 444.947 182.928 446.064 182.239 446.989C181.557 447.913 180.629 448.553 179.455 448.909V449.091C180.924 449.333 182.072 449.958 182.898 450.966C183.723 451.966 184.136 453.205 184.136 454.682C184.136 455.947 183.792 457.083 183.102 458.091C182.42 459.091 181.489 459.879 180.307 460.455C179.125 461.03 177.78 461.318 176.273 461.318Z" fill="black"/>
<path d="M172.261 460.545L171.857 461.46L171.86 461.461L172.261 460.545ZM169.477 458.398L168.673 458.991L168.678 458.999L169.477 458.398ZM168.364 455.182V454.182H167.313L167.365 455.231L168.364 455.182ZM171.227 455.182L172.224 455.101L172.15 454.182H171.227V455.182ZM172 457.125L171.232 457.765L171.236 457.77L172 457.125ZM173.784 458.375L173.411 459.303L173.411 459.303L173.784 458.375ZM180.705 456.841L179.888 456.263L179.888 456.263L180.705 456.841ZM180.727 452.42L179.886 452.962L179.889 452.966L180.727 452.42ZM178.864 450.875L178.45 451.786L178.45 451.786L178.864 450.875ZM174 450.318H173V451.318H174V450.318ZM174 447.818V446.818H173V447.818H174ZM178.295 447.318L177.868 446.414L177.864 446.416L178.295 447.318ZM179.943 445.909L179.11 445.357L179.105 445.364L179.943 445.909ZM180.023 441.716L180.881 441.203L180.881 441.203L180.023 441.716ZM178.545 440.352L178.085 441.24L178.09 441.242L178.545 440.352ZM174.045 440.307L174.424 441.233L174.429 441.23L174.045 440.307ZM172.318 441.568L173.092 442.202L173.096 442.197L172.318 441.568ZM171.591 443.545V444.545H172.543L172.59 443.594L171.591 443.545ZM168.864 443.545L167.864 443.508L167.826 444.545H168.864V443.545ZM169.966 440.341L170.765 440.942L170.767 440.939L169.966 440.341ZM172.67 438.182L172.253 437.273L172.251 437.274L172.67 438.182ZM180.068 438.284L179.575 439.154L179.58 439.157L180.068 438.284ZM182.443 440.568L181.58 441.072L181.58 441.072L182.443 440.568ZM182.239 446.989L181.437 446.391L181.434 446.395L182.239 446.989ZM179.455 448.909L179.164 447.952L178.455 448.167V448.909H179.455ZM179.455 449.091H178.455V449.939L179.292 450.078L179.455 449.091ZM182.898 450.966L182.124 451.6L182.127 451.603L182.898 450.966ZM183.102 458.091L182.277 457.526L182.276 457.528L183.102 458.091ZM180.307 460.455L180.745 461.354L180.745 461.354L180.307 460.455ZM176.273 460.318C174.888 460.318 173.691 460.081 172.663 459.63L171.86 461.461C173.18 462.041 174.658 462.318 176.273 462.318V460.318ZM172.665 459.631C171.637 459.177 170.852 458.562 170.276 457.797L168.678 458.999C169.481 460.067 170.552 460.884 171.857 461.46L172.665 459.631ZM170.282 457.804C169.724 457.048 169.414 456.168 169.362 455.132L167.365 455.231C167.435 456.635 167.866 457.899 168.673 458.991L170.282 457.804ZM168.364 456.182H171.227V454.182H168.364V456.182ZM170.231 455.262C170.307 456.205 170.637 457.051 171.232 457.765L172.768 456.485C172.454 456.108 172.269 455.659 172.224 455.101L170.231 455.262ZM171.236 457.77C171.809 458.448 172.544 458.954 173.411 459.303L174.157 457.447C173.554 457.205 173.101 456.878 172.764 456.48L171.236 457.77ZM173.411 459.303C174.279 459.652 175.222 459.818 176.227 459.818V457.818C175.445 457.818 174.759 457.689 174.157 457.447L173.411 459.303ZM176.227 459.818C177.344 459.818 178.374 459.623 179.297 459.207L178.475 457.384C177.853 457.665 177.111 457.818 176.227 457.818V459.818ZM179.297 459.207C180.214 458.794 180.967 458.201 181.521 457.418L179.888 456.263C179.563 456.723 179.105 457.1 178.475 457.384L179.297 459.207ZM181.521 457.418C182.089 456.615 182.364 455.69 182.364 454.682H180.364C180.364 455.31 180.199 455.824 179.888 456.263L181.521 457.418ZM182.364 454.682C182.364 453.652 182.106 452.705 181.565 451.875L179.889 452.966C180.197 453.439 180.364 453.999 180.364 454.682H182.364ZM181.568 451.879C181.025 451.036 180.244 450.403 179.277 449.964L178.45 451.786C179.12 452.089 179.581 452.487 179.886 452.962L181.568 451.879ZM179.277 449.964C178.295 449.519 177.145 449.318 175.864 449.318V451.318C176.946 451.318 177.796 451.489 178.45 451.786L179.277 449.964ZM175.864 449.318H174V451.318H175.864V449.318ZM175 450.318V447.818H173V450.318H175ZM174 448.818H175.864V446.818H174V448.818ZM175.864 448.818C176.908 448.818 177.871 448.629 178.727 448.22L177.864 446.416C177.326 446.674 176.668 446.818 175.864 446.818V448.818ZM178.723 448.222C179.582 447.816 180.279 447.228 180.782 446.454L179.105 445.364C178.82 445.803 178.418 446.154 177.868 446.414L178.723 448.222ZM180.777 446.461C181.3 445.672 181.545 444.762 181.545 443.773H179.545C179.545 444.42 179.389 444.935 179.11 445.357L180.777 446.461ZM181.545 443.773C181.545 442.833 181.336 441.965 180.881 441.203L179.164 442.229C179.406 442.634 179.545 443.136 179.545 443.773H181.545ZM180.881 441.203C180.431 440.45 179.795 439.869 179.001 439.462L178.09 441.242C178.568 441.487 178.917 441.815 179.164 442.229L180.881 441.203ZM179.005 439.464C178.208 439.051 177.301 438.864 176.318 438.864V440.864C177.047 440.864 177.626 441.002 178.085 441.24L179.005 439.464ZM176.318 438.864C175.389 438.864 174.501 439.035 173.662 439.383L174.429 441.23C175.014 440.988 175.641 440.864 176.318 440.864V438.864ZM173.667 439.381C172.818 439.728 172.101 440.246 171.54 440.94L173.096 442.197C173.429 441.784 173.864 441.461 174.424 441.233L173.667 439.381ZM171.545 440.934C170.949 441.662 170.639 442.532 170.592 443.496L172.59 443.594C172.618 443.014 172.794 442.565 173.092 442.202L171.545 440.934ZM171.591 442.545H168.864V444.545H171.591V442.545ZM169.863 443.583C169.901 442.553 170.206 441.685 170.765 440.942L169.167 439.74C168.347 440.83 167.917 442.098 167.864 443.508L169.863 443.583ZM170.767 440.939C171.351 440.157 172.118 439.539 173.09 439.089L172.251 437.274C170.996 437.855 169.96 438.677 169.164 439.743L170.767 440.939ZM173.088 439.09C174.067 438.641 175.154 438.409 176.364 438.409V436.409C174.891 436.409 173.516 436.693 172.253 437.273L173.088 439.09ZM176.364 438.409C177.667 438.409 178.725 438.673 179.575 439.154L180.561 437.414C179.351 436.729 177.939 436.409 176.364 436.409V438.409ZM179.58 439.157C180.467 439.653 181.124 440.291 181.58 441.072L183.307 440.064C182.657 438.951 181.73 438.067 180.556 437.411L179.58 439.157ZM181.58 441.072C182.043 441.866 182.273 442.715 182.273 443.636H184.273C184.273 442.361 183.949 441.164 183.307 440.064L181.58 441.072ZM182.273 443.636C182.273 444.762 181.98 445.662 181.437 446.391L183.04 447.587C183.876 446.466 184.273 445.132 184.273 443.636H182.273ZM181.434 446.395C180.889 447.134 180.147 447.654 179.164 447.952L179.745 449.866C181.11 449.452 182.225 448.692 183.043 447.582L181.434 446.395ZM178.455 448.909V449.091H180.455V448.909H178.455ZM179.292 450.078C180.558 450.287 181.474 450.807 182.124 451.6L183.671 450.332C182.669 449.11 181.29 448.38 179.617 448.104L179.292 450.078ZM182.127 451.603C182.784 452.399 183.136 453.403 183.136 454.682H185.136C185.136 453.006 184.663 451.533 183.669 450.329L182.127 451.603ZM183.136 454.682C183.136 455.753 182.848 456.691 182.277 457.526L183.928 458.656C184.735 457.475 185.136 456.141 185.136 454.682H183.136ZM182.276 457.528C181.701 458.372 180.908 459.049 179.869 459.556L180.745 461.354C182.069 460.708 183.14 459.81 183.929 458.654L182.276 457.528ZM179.869 459.556C178.842 460.056 177.651 460.318 176.273 460.318V462.318C177.91 462.318 179.408 462.005 180.745 461.354L179.869 459.556Z" fill="black"/>
</g>
<g filter="url(#filter11_d_73_180)">
<path d="M140.864 327.227V324.909L151.091 308.727H152.773V312.318H151.636L143.909 324.545V324.727H157.682V327.227H140.864ZM151.818 332V326.523V325.443V308.727H154.5V332H151.818Z" fill="black"/>
<path d="M140.864 327.227H139.864V328.227H140.864V327.227ZM140.864 324.909L140.018 324.375L139.864 324.62V324.909H140.864ZM151.091 308.727V307.727H150.54L150.246 308.193L151.091 308.727ZM152.773 308.727H153.773V307.727H152.773V308.727ZM152.773 312.318V313.318H153.773V312.318H152.773ZM151.636 312.318V311.318H151.085L150.791 311.784L151.636 312.318ZM143.909 324.545L143.064 324.011L142.909 324.256V324.545H143.909ZM143.909 324.727H142.909V325.727H143.909V324.727ZM157.682 324.727H158.682V323.727H157.682V324.727ZM157.682 327.227V328.227H158.682V327.227H157.682ZM151.818 332H150.818V333H151.818V332ZM151.818 308.727V307.727H150.818V308.727H151.818ZM154.5 308.727H155.5V307.727H154.5V308.727ZM154.5 332V333H155.5V332H154.5ZM141.864 327.227V324.909H139.864V327.227H141.864ZM141.709 325.443L151.936 309.262L150.246 308.193L140.018 324.375L141.709 325.443ZM151.091 309.727H152.773V307.727H151.091V309.727ZM151.773 308.727V312.318H153.773V308.727H151.773ZM152.773 311.318H151.636V313.318H152.773V311.318ZM150.791 311.784L143.064 324.011L144.754 325.08L152.482 312.852L150.791 311.784ZM142.909 324.545V324.727H144.909V324.545H142.909ZM143.909 325.727H157.682V323.727H143.909V325.727ZM156.682 324.727V327.227H158.682V324.727H156.682ZM157.682 326.227H140.864V328.227H157.682V326.227ZM152.818 332V326.523H150.818V332H152.818ZM152.818 326.523V325.443H150.818V326.523H152.818ZM152.818 325.443V308.727H150.818V325.443H152.818ZM151.818 309.727H154.5V307.727H151.818V309.727ZM153.5 308.727V332H155.5V308.727H153.5ZM154.5 331H151.818V333H154.5V331Z" fill="black"/>
</g>
<defs>
<filter id="filter0_d_73_180" x="35.9545" y="478.727" width="16.6364" height="31.2727" filterUnits="userSpaceOnUse" color-interpolation-filters="sRGB">
<feFlood flood-opacity="0" result="BackgroundImageFix"/>
<feColorMatrix in="SourceAlpha" type="matrix" values="0 0 0 0 0 0 0 0 0 0 0 0 0 0 0 0 0 0 127 0" result="hardAlpha"/>
<feOffset dy="4"/>
<feGaussianBlur stdDeviation="2"/>
<feComposite in2="hardAlpha" operator="out"/>
<feColorMatrix type="matrix" values="0 0 0 0 0 0 0 0 0 0 0 0 0 0 0 0 0 0 0.25 0"/>
<feBlend mode="normal" in2="BackgroundImageFix" result="effect1_dropShadow_73_180"/>
<feBlend mode="normal" in="SourceGraphic" in2="effect1_dropShadow_73_180" result="shape"/>
</filter>
<filter id="filter1_d_73_180" x="317.955" y="518.727" width="31.5114" height="31.2727" filterUnits="userSpaceOnUse" color-interpolation-filters="sRGB">
<feFlood flood-opacity="0" result="BackgroundImageFix"/>
<feColorMatrix in="SourceAlpha" type="matrix" values="0 0 0 0 0 0 0 0 0 0 0 0 0 0 0 0 0 0 127 0" result="hardAlpha"/>
<feOffset dy="4"/>
<feGaussianBlur stdDeviation="2"/>
<feComposite in2="hardAlpha" operator="out"/>
<feColorMatrix type="matrix" values="0 0 0 0 0 0 0 0 0 0 0 0 0 0 0 0 0 0 0.25 0"/>
<feBlend mode="normal" in2="BackgroundImageFix" result="effect1_dropShadow_73_180"/>
<feBlend mode="normal" in="SourceGraphic" in2="effect1_dropShadow_73_180" result="shape"/>
</filter>
<filter id="filter2_d_73_180" x="56.0455" y="39.4091" width="23.8636" height="31.9318" filterUnits="userSpaceOnUse" color-interpolation-filters="sRGB">
<feFlood flood-opacity="0" result="BackgroundImageFix"/>
<feColorMatrix in="SourceAlpha" type="matrix" values="0 0 0 0 0 0 0 0 0 0 0 0 0 0 0 0 0 0 127 0" result="hardAlpha"/>
<feOffset dy="4"/>
<feGaussianBlur stdDeviation="2"/>
<feComposite in2="hardAlpha" operator="out"/>
<feColorMatrix type="matrix" values="0 0 0 0 0 0 0 0 0 0 0 0 0 0 0 0 0 0 0.25 0"/>
<feBlend mode="normal" in2="BackgroundImageFix" result="effect1_dropShadow_73_180"/>
<feBlend mode="normal" in="SourceGraphic" in2="effect1_dropShadow_73_180" result="shape"/>
</filter>
<filter id="filter3_d_73_180" x="490.955" y="515.409" width="38.0114" height="31.5909" filterUnits="userSpaceOnUse" color-interpolation-filters="sRGB">
<feFlood flood-opacity="0" result="BackgroundImageFix"/>
<feColorMatrix in="SourceAlpha" type="matrix" values="0 0 0 0 0 0 0 0 0 0 0 0 0 0 0 0 0 0 127 0" result="hardAlpha"/>
<feOffset dy="4"/>
<feGaussianBlur stdDeviation="2"/>
<feComposite in2="hardAlpha" operator="out"/>
<feColorMatrix type="matrix" values="0 0 0 0 0 0 0 0 0 0 0 0 0 0 0 0 0 0 0.25 0"/>
<feBlend mode="normal" in2="BackgroundImageFix" result="effect1_dropShadow_73_180"/>
<feBlend mode="normal" in="SourceGraphic" in2="effect1_dropShadow_73_180" result="shape"/>
</filter>
<filter id="filter4_d_73_180" x="511.955" y="278.409" width="39.0114" height="31.9091" filterUnits="userSpaceOnUse" color-interpolation-filters="sRGB">
<feFlood flood-opacity="0" result="BackgroundImageFix"/>
<feColorMatrix in="SourceAlpha" type="matrix" values="0 0 0 0 0 0 0 0 0 0 0 0 0 0 0 0 0 0 127 0" result="hardAlpha"/>
<feOffset dy="4"/>
<feGaussianBlur stdDeviation="2"/>
<feComposite in2="hardAlpha" operator="out"/>
<feColorMatrix type="matrix" values="0 0 0 0 0 0 0 0 0 0 0 0 0 0 0 0 0 0 0.25 0"/>
<feBlend mode="normal" in2="BackgroundImageFix" result="effect1_dropShadow_73_180"/>
<feBlend mode="normal" in="SourceGraphic" in2="effect1_dropShadow_73_180" result="shape"/>
</filter>
<filter id="filter5_d_73_180" x="200.943" y="27.4091" width="23.8295" height="31.9091" filterUnits="userSpaceOnUse" color-interpolation-filters="sRGB">
<feFlood flood-opacity="0" result="BackgroundImageFix"/>
<feColorMatrix in="SourceAlpha" type="matrix" values="0 0 0 0 0 0 0 0 0 0 0 0 0 0 0 0 0 0 127 0" result="hardAlpha"/>
<feOffset dy="4"/>
<feGaussianBlur stdDeviation="2"/>
<feComposite in2="hardAlpha" operator="out"/>
<feColorMatrix type="matrix" values="0 0 0 0 0 0 0 0 0 0 0 0 0 0 0 0 0 0 0.25 0"/>
<feBlend mode="normal" in2="BackgroundImageFix" result="effect1_dropShadow_73_180"/>
<feBlend mode="normal" in="SourceGraphic" in2="effect1_dropShadow_73_180" result="shape"/>
</filter>
<filter id="filter6_d_73_180" x="400.545" y="29.7273" width="22.9091" height="31.2727" filterUnits="userSpaceOnUse" color-interpolation-filters="sRGB">
<feFlood flood-opacity="0" result="BackgroundImageFix"/>
<feColorMatrix in="SourceAlpha" type="matrix" values="0 0 0 0 0 0 0 0 0 0 0 0 0 0 0 0 0 0 127 0" result="hardAlpha"/>
<feOffset dy="4"/>
<feGaussianBlur stdDeviation="2"/>
<feComposite in2="hardAlpha" operator="out"/>
<feColorMatrix type="matrix" values="0 0 0 0 0 0 0 0 0 0 0 0 0 0 0 0 0 0 0.25 0"/>
<feBlend mode="normal" in2="BackgroundImageFix" result="effect1_dropShadow_73_180"/>
<feBlend mode="normal" in="SourceGraphic" in2="effect1_dropShadow_73_180" result="shape"/>
</filter>
<filter id="filter7_d_73_180" x="223.045" y="296.375" width="23.8636" height="31.9432" filterUnits="userSpaceOnUse" color-interpolation-filters="sRGB">
<feFlood flood-opacity="0" result="BackgroundImageFix"/>
<feColorMatrix in="SourceAlpha" type="matrix" values="0 0 0 0 0 0 0 0 0 0 0 0 0 0 0 0 0 0 127 0" result="hardAlpha"/>
<feOffset dy="4"/>
<feGaussianBlur stdDeviation="2"/>
<feComposite in2="hardAlpha" operator="out"/>
<feColorMatrix type="matrix" values="0 0 0 0 0 0 0 0 0 0 0 0 0 0 0 0 0 0 0.25 0"/>
<feBlend mode="normal" in2="BackgroundImageFix" result="effect1_dropShadow_73_180"/>
<feBlend mode="normal" in="SourceGraphic" in2="effect1_dropShadow_73_180" result="shape"/>
</filter>
<filter id="filter8_d_73_180" x="28.4545" y="347.727" width="22.9091" height="31.5909" filterUnits="userSpaceOnUse" color-interpolation-filters="sRGB">
<feFlood flood-opacity="0" result="BackgroundImageFix"/>
<feColorMatrix in="SourceAlpha" type="matrix" values="0 0 0 0 0 0 0 0 0 0 0 0 0 0 0 0 0 0 127 0" result="hardAlpha"/>
<feOffset dy="4"/>
<feGaussianBlur stdDeviation="2"/>
<feComposite in2="hardAlpha" operator="out"/>
<feColorMatrix type="matrix" values="0 0 0 0 0 0 0 0 0 0 0 0 0 0 0 0 0 0 0.25 0"/>
<feBlend mode="normal" in2="BackgroundImageFix" result="effect1_dropShadow_73_180"/>
<feBlend mode="normal" in="SourceGraphic" in2="effect1_dropShadow_73_180" result="shape"/>
</filter>
<filter id="filter9_d_73_180" x="165.409" y="517.409" width="22.6818" height="31.5909" filterUnits="userSpaceOnUse" color-interpolation-filters="sRGB">
<feFlood flood-opacity="0" result="BackgroundImageFix"/>
<feColorMatrix in="SourceAlpha" type="matrix" values="0 0 0 0 0 0 0 0 0 0 0 0 0 0 0 0 0 0 127 0" result="hardAlpha"/>
<feOffset dy="4"/>
<feGaussianBlur stdDeviation="2"/>
<feComposite in2="hardAlpha" operator="out"/>
<feColorMatrix type="matrix" values="0 0 0 0 0 0 0 0 0 0 0 0 0 0 0 0 0 0 0.25 0"/>
<feBlend mode="normal" in2="BackgroundImageFix" result="effect1_dropShadow_73_180"/>
<feBlend mode="normal" in="SourceGraphic" in2="effect1_dropShadow_73_180" result="shape"/>
</filter>
<filter id="filter10_d_73_180" x="164.364" y="437.409" width="23.7727" height="31.9091" filterUnits="userSpaceOnUse" color-interpolation-filters="sRGB">
<feFlood flood-opacity="0" result="BackgroundImageFix"/>
<feColorMatrix in="SourceAlpha" type="matrix" values="0 0 0 0 0 0 0 0 0 0 0 0 0 0 0 0 0 0 127 0" result="hardAlpha"/>
<feOffset dy="4"/>
<feGaussianBlur stdDeviation="2"/>
<feComposite in2="hardAlpha" operator="out"/>
<feColorMatrix type="matrix" values="0 0 0 0 0 0 0 0 0 0 0 0 0 0 0 0 0 0 0.25 0"/>
<feBlend mode="normal" in2="BackgroundImageFix" result="effect1_dropShadow_73_180"/>
<feBlend mode="normal" in="SourceGraphic" in2="effect1_dropShadow_73_180" result="shape"/>
</filter>
<filter id="filter11_d_73_180" x="136.864" y="308.727" width="24.8182" height="31.2727" filterUnits="userSpaceOnUse" color-interpolation-filters="sRGB">
<feFlood flood-opacity="0" result="BackgroundImageFix"/>
<feColorMatrix in="SourceAlpha" type="matrix" values="0 0 0 0 0 0 0 0 0 0 0 0 0 0 0 0 0 0 127 0" result="hardAlpha"/>
<feOffset dy="4"/>
<feGaussianBlur stdDeviation="2"/>
<feComposite in2="hardAlpha" operator="out"/>
<feColorMatrix type="matrix" values="0 0 0 0 0 0 0 0 0 0 0 0 0 0 0 0 0 0 0.25 0"/>
<feBlend mode="normal" in2="BackgroundImageFix" result="effect1_dropShadow_73_180"/>
<feBlend mode="normal" in="SourceGraphic" in2="effect1_dropShadow_73_180" result="shape"/>
</filter>
</defs>
</svg>
